<?xml version="1.0" encoding="UTF-8" standalone="no"?>
<svg xmlns="http://www.w3.org/2000/svg" viewBox="0 0 136 136" height="60px" width="60px"><g id="brand-shield-icon"><path d="M0 68v68h136V0H0v68zm85.3-36.3c2.9.4 3.7.9 3.2 2.1-.3.9-4.6 8-9.6 16-6.1 9.6-8.9 15.1-8.7 16.7.2 1.8 2.9-1.8 11.6-15.5L93 33.1l3.3 1c1.7.5 3.4.9 3.6.9.8 0-1.2 28-2.5 35.9-2.6 14.8-10.4 27-22.7 35.5l-5.5 3.8-4.4-3c-6.7-4.6-16.3-15.4-19.3-21.7-3.9-8.3-5.5-17.1-6.2-34.7l-.6-15.6 3.9-1.1c3.5-.9 11.2-2.3 19.9-3.5 3.4-.5 17 .2 22.8 1.1z"></path></g></svg>
