<?xml version="1.0" encoding="UTF-8" standalone="no"?>
<svg width="83px" height="80px" viewBox="0 0 83 80" version="1.1" xmlns="http://www.w3.org/2000/svg" xmlns:xlink="http://www.w3.org/1999/xlink">
    <!-- Generator: Sketch 3.8.3 (29802) - http://www.bohemiancoding.com/sketch -->
    <title>Group</title>
    <desc>Created with Sketch.</desc>
    <defs></defs>
    <g id="Work" stroke="none" stroke-width="1" fill="none" fill-rule="evenodd">
        <g id="Work-Desktop" transform="translate(-470.000000, -997.000000)" fill="#207D98">
            <g id="Group" transform="translate(470.000000, 997.000000)">
                <polygon id="Shape" points="69.9351852 44.1050119 69.9351852 43.9140811 69.7430556 43.9140811 69.7430556 43.7231504 69.5509259 43.7231504 69.5509259 43.3412888 69.3587963 43.3412888 69.3587963 42.9594272 69.1666667 42.9594272 69.1666667 42.3866348 68.974537 42.3866348 68.974537 41.8138425 68.7824074 41.8138425 68.7824074 40.6682578 68.5902778 40.6682578 68.5902778 39.3317422 68.7824074 39.3317422 68.7824074 38.3770883 68.974537 38.3770883 68.974537 37.8042959 69.1666667 37.8042959 69.1666667 37.2315036 69.3587963 37.2315036 69.3587963 36.849642 69.5509259 36.849642 69.5509259 36.4677804 69.7430556 36.4677804 69.7430556 36.2768496 69.9351852 36.2768496 69.9351852 35.8949881 70.1273148 35.8949881 70.1273148 35.7040573 70.3194444 35.7040573 70.3194444 35.5131265 70.5115741 35.5131265 70.5115741 35.1312649 70.7037037 35.1312649 70.7037037 34.9403341 71.087963 34.9403341 71.087963 34.7494033 71.2800926 34.7494033 71.2800926 34.5584726 71.4722222 34.5584726 71.4722222 34.3675418 71.6643519 34.3675418 71.6643519 34.176611 72.0486111 34.176611 72.0486111 33.9856802 72.2407407 33.9856802 72.2407407 33.7947494 72.625 33.7947494 72.625 33.6038186 73.2013889 33.6038186 73.2013889 33.4128878 73.5856481 33.4128878 73.5856481 33.221957 74.3541667 33.221957 74.3541667 33.0310263 77.2361111 33.0310263 77.2361111 33.221957 78.0046296 33.221957 78.0046296 33.4128878 78.3888889 33.4128878 78.3888889 33.6038186 78.9652778 33.6038186 78.9652778 33.7947494 79.349537 33.7947494 79.349537 33.9856802 79.5416667 33.9856802 79.5416667 34.176611 79.9259259 34.176611 79.9259259 34.3675418 80.1180556 34.3675418 80.1180556 34.5584726 80.3101852 34.5584726 80.3101852 34.7494033 80.5023148 34.7494033 80.5023148 34.9403341 80.8865741 34.9403341 80.8865741 35.1312649 81.0787037 35.1312649 81.0787037 35.5131265 81.2708333 35.5131265 81.2708333 35.7040573 81.462963 35.7040573 81.462963 35.8949881 81.6550926 35.8949881 81.6550926 36.2768496 81.8472222 36.2768496 81.8472222 36.4677804 82.0393519 36.4677804 82.0393519 36.849642 82.2314815 36.849642 82.2314815 37.2315036 82.4236111 37.2315036 82.4236111 37.8042959 82.6157407 37.8042959 82.6157407 38.3770883 82.8078704 38.3770883 82.8078704 39.3317422 83 39.3317422 83 40.6682578 82.8078704 40.6682578 82.8078704 41.8138425 82.6157407 41.8138425 82.6157407 42.3866348 82.4236111 42.3866348 82.4236111 42.9594272 82.2314815 42.9594272 82.2314815 43.3412888 82.0393519 43.3412888 82.0393519 43.7231504 81.8472222 43.7231504 81.8472222 43.9140811 81.6550926 43.9140811 81.6550926 44.2959427 81.462963 44.2959427 81.462963 44.4868735 81.2708333 44.4868735 81.2708333 44.6778043 81.0787037 44.6778043 81.0787037 44.8687351 80.8865741 44.8687351 80.8865741 45.0596659 80.6944444 45.0596659 80.6944444 45.2505967 80.5023148 45.2505967 80.5023148 45.4415274 80.3101852 45.4415274 80.3101852 45.6324582 80.1180556 45.6324582 80.1180556 45.823389 79.7337963 45.823389 79.7337963 46.0143198 79.5416667 46.0143198 79.5416667 46.2052506 79.1574074 46.2052506 79.1574074 46.3961814 78.7731481 46.3961814 78.7731481 46.5871122 78.3888889 46.5871122 78.3888889 46.778043 77.8125 46.778043 77.8125 46.9689737 77.0439815 46.9689737 77.0439815 47.1599045 74.5462963 47.1599045 74.5462963 46.9689737 73.7777778 46.9689737 73.7777778 46.778043 73.2013889 46.778043 73.2013889 46.5871122 72.8171296 46.5871122 72.8171296 46.3961814 72.4328704 46.3961814 72.4328704 46.2052506 72.0486111 46.2052506 72.0486111 46.0143198 71.8564815 46.0143198 71.8564815 45.823389 71.4722222 45.823389 71.4722222 45.6324582 71.2800926 45.6324582 71.2800926 45.4415274 71.087963 45.4415274 71.087963 45.2505967 70.8958333 45.2505967 70.8958333 45.0596659 70.7037037 45.0596659 70.7037037 44.8687351 70.5115741 44.8687351 70.5115741 44.6778043 70.3194444 44.6778043 70.3194444 44.4868735 70.1273148 44.4868735 70.1273148 44.2959427 69.9351852 44.2959427"></polygon>
                <polygon id="Shape" points="8.4537037 15.4653938 8.4537037 15.6563246 8.26157407 15.6563246 8.26157407 15.8472554 8.06944444 15.8472554 8.06944444 16.2291169 7.87731481 16.2291169 7.87731481 16.4200477 7.68518519 16.4200477 7.68518519 16.6109785 7.49305556 16.6109785 7.49305556 16.9928401 7.30092593 16.9928401 7.30092593 17.1837709 7.1087963 17.1837709 7.1087963 17.5656325 6.91666667 17.5656325 6.91666667 17.7565632 6.72453704 17.7565632 6.72453704 18.1384248 6.53240741 18.1384248 6.53240741 18.3293556 6.34027778 18.3293556 6.34027778 18.7112172 6.14814815 18.7112172 6.14814815 18.902148 5.95601852 18.902148 5.95601852 19.2840095 5.76388889 19.2840095 5.76388889 19.4749403 5.57175926 19.4749403 5.57175926 19.8568019 5.37962963 19.8568019 5.37962963 20.2386635 5.1875 20.2386635 5.1875 20.6205251 4.99537037 20.6205251 4.99537037 20.8114558 4.80324074 20.8114558 4.80324074 21.1933174 4.61111111 21.1933174 4.61111111 21.575179 4.41898148 21.575179 4.41898148 21.9570406 4.22685185 21.9570406 4.22685185 22.3389021 4.03472222 22.3389021 4.03472222 22.7207637 3.84259259 22.7207637 3.84259259 23.1026253 3.65046296 23.1026253 3.65046296 23.6754177 3.45833333 23.6754177 3.45833333 24.0572792 3.2662037 24.0572792 3.2662037 24.4391408 3.07407407 24.4391408 3.07407407 25.0119332 2.88194444 25.0119332 2.88194444 25.3937947 2.68981481 25.3937947 2.68981481 25.9665871 2.49768519 25.9665871 2.49768519 26.3484487 2.30555556 26.3484487 2.30555556 26.9212411 2.11342593 26.9212411 2.11342593 27.4940334 1.9212963 27.4940334 1.9212963 28.0668258 1.72916667 28.0668258 1.72916667 28.6396181 1.53703704 28.6396181 1.53703704 29.4033413 1.34490741 29.4033413 1.34490741 30.1670644 1.15277778 30.1670644 1.15277778 30.9307876 0.960648148 30.9307876 0.960648148 31.6945107 0.768518519 31.6945107 0.768518519 32.6491647 0.576388889 32.6491647 0.576388889 33.7947494 0.384259259 33.7947494 0.384259259 35.1312649 0.19212963 35.1312649 0.19212963 37.0405728 0 37.0405728 0 42.9594272 0.19212963 42.9594272 0.19212963 44.8687351 0.384259259 44.8687351 0.384259259 46.2052506 0.576388889 46.2052506 0.576388889 47.3508353 0.768518519 47.3508353 0.768518519 48.3054893 0.960648148 48.3054893 0.960648148 49.2601432 1.15277778 49.2601432 1.15277778 50.0238663 1.34490741 50.0238663 1.34490741 50.5966587 1.53703704 50.5966587 1.53703704 51.3603819 1.72916667 51.3603819 1.72916667 51.9331742 1.9212963 51.9331742 1.9212963 52.5059666 2.11342593 52.5059666 2.11342593 53.0787589 2.30555556 53.0787589 2.30555556 53.6515513 2.49768519 53.6515513 2.49768519 54.2243437 2.68981481 54.2243437 2.68981481 54.6062053 2.88194444 54.6062053 2.88194444 55.1789976 3.07407407 55.1789976 3.07407407 55.5608592 3.2662037 55.5608592 3.2662037 55.9427208 3.45833333 55.9427208 3.45833333 56.5155131 3.65046296 56.5155131 3.65046296 56.8973747 3.84259259 56.8973747 3.84259259 57.2792363 4.03472222 57.2792363 4.03472222 57.6610979 4.22685185 57.6610979 4.22685185 58.0429594 4.41898148 58.0429594 4.41898148 58.424821 4.61111111 58.424821 4.61111111 58.8066826 4.80324074 58.8066826 4.80324074 59.1885442 4.99537037 59.1885442 4.99537037 59.5704057 5.1875 59.5704057 5.1875 59.7613365 5.37962963 59.7613365 5.37962963 60.1431981 5.57175926 60.1431981 5.57175926 60.5250597 5.76388889 60.5250597 5.76388889 60.7159905 5.95601852 60.7159905 5.95601852 61.097852 6.14814815 61.097852 6.14814815 61.4797136 6.34027778 61.4797136 6.34027778 61.6706444 6.53240741 61.6706444 6.53240741 62.052506 6.72453704 62.052506 6.72453704 62.2434368 6.91666667 62.2434368 6.91666667 62.6252983 7.1087963 62.6252983 7.1087963 62.8162291 7.30092593 62.8162291 7.30092593 63.1980907 7.49305556 63.1980907 7.49305556 63.3890215 7.68518519 63.3890215 7.68518519 63.5799523 7.87731481 63.5799523 7.87731481 63.9618138 8.06944444 63.9618138 8.06944444 64.1527446 8.26157407 64.1527446 8.26157407 64.3436754 8.4537037 64.3436754 8.4537037 64.725537 8.64583333 64.725537 8.64583333 64.9164678 8.83796296 64.9164678 8.83796296 65.1073986 9.03009259 65.1073986 9.03009259 65.2983294 9.22222222 65.2983294 9.22222222 65.6801909 9.41435185 65.6801909 9.41435185 65.8711217 9.60648148 65.8711217 9.60648148 66.0620525 9.79861111 66.0620525 9.79861111 66.2529833 9.99074074 66.2529833 9.99074074 66.4439141 10.1828704 66.4439141 10.1828704 66.6348449 10.375 66.6348449 10.375 66.8257757 10.5671296 66.8257757 10.5671296 67.2076372 10.7592593 67.2076372 10.7592593 67.398568 10.9513889 67.398568 10.9513889 67.5894988 11.1435185 67.5894988 11.1435185 67.7804296 11.3356481 67.7804296 11.3356481 67.9713604 11.5277778 67.9713604 11.5277778 68.1622912 11.7199074 68.1622912 11.7199074 68.353222 11.912037 68.353222 11.912037 68.5441527 12.1041667 68.5441527 12.1041667 68.7350835 12.2962963 68.7350835 12.2962963 68.9260143 12.4884259 68.9260143 12.4884259 69.1169451 12.6805556 69.1169451 12.6805556 69.3078759 12.8726852 69.3078759 12.8726852 69.4988067 13.2569444 69.4988067 13.2569444 69.6897375 13.4490741 69.6897375 13.4490741 69.8806683 13.6412037 69.8806683 13.6412037 70.071599 13.8333333 70.071599 13.8333333 70.2625298 14.025463 70.2625298 14.025463 70.4534606 14.2175926 70.4534606 14.2175926 70.6443914 14.4097222 70.6443914 14.4097222 70.8353222 14.7939815 70.8353222 14.7939815 71.026253 14.9861111 71.026253 14.9861111 71.2171838 15.1782407 71.2171838 15.1782407 71.4081146 15.3703704 71.4081146 15.3703704 71.5990453 15.7546296 71.5990453 15.7546296 71.7899761 15.9467593 71.7899761 15.9467593 71.9809069 16.1388889 71.9809069 16.1388889 72.1718377 16.5231481 72.1718377 16.5231481 72.3627685 16.7152778 72.3627685 16.7152778 72.5536993 16.9074074 72.5536993 16.9074074 72.7446301 17.2916667 72.7446301 17.2916667 72.9355609 17.4837963 72.9355609 17.4837963 73.1264916 17.8680556 73.1264916 17.8680556 73.3174224 18.0601852 73.3174224 18.0601852 73.5083532 18.4444444 73.5083532 18.4444444 73.699284 18.6365741 73.699284 18.6365741 73.8902148 19.0208333 73.8902148 19.0208333 74.0811456 19.212963 74.0811456 19.212963 74.2720764 19.5972222 74.2720764 19.5972222 74.4630072 19.9814815 74.4630072 19.9814815 74.6539379 20.1736111 74.6539379 20.1736111 74.8448687 20.5578704 74.8448687 20.5578704 75.0357995 20.9421296 75.0357995 20.9421296 75.2267303 21.3263889 75.2267303 21.3263889 75.4176611 21.7106481 75.4176611 21.7106481 75.6085919 22.0949074 75.6085919 22.0949074 75.7995227 22.4791667 75.7995227 22.4791667 75.9904535 22.8634259 75.9904535 22.8634259 76.1813842 23.2476852 76.1813842 23.2476852 76.372315 23.6319444 76.372315 23.6319444 76.5632458 24.0162037 76.5632458 24.0162037 76.7541766 24.400463 76.7541766 24.400463 76.9451074 24.9768519 76.9451074 24.9768519 77.1360382 25.3611111 77.1360382 25.3611111 77.326969 25.9375 77.326969 25.9375 77.5178998 26.3217593 77.5178998 26.3217593 77.7088305 26.8981481 77.7088305 26.8981481 77.8997613 27.474537 77.8997613 27.474537 78.0906921 28.0509259 78.0906921 28.0509259 78.2816229 28.6273148 78.2816229 28.6273148 78.4725537 29.3958333 78.4725537 29.3958333 78.6634845 29.9722222 78.6634845 29.9722222 78.8544153 30.7407407 78.8544153 30.7407407 79.0453461 31.7013889 79.0453461 31.7013889 79.2362768 32.4699074 79.2362768 32.4699074 79.4272076 33.6226852 79.4272076 33.6226852 79.6181384 34.775463 79.6181384 34.775463 79.8090692 36.5046296 79.8090692 36.5046296 80 43.9976852 80 43.9976852 79.8090692 45.7268519 79.8090692 45.7268519 79.6181384 47.0717593 79.6181384 47.0717593 79.4272076 48.0324074 79.4272076 48.0324074 79.2362768 48.9930556 79.2362768 48.9930556 79.0453461 49.7615741 79.0453461 49.7615741 78.8544153 50.5300926 78.8544153 50.5300926 78.6634845 51.2986111 78.6634845 51.2986111 78.4725537 51.875 78.4725537 51.875 78.2816229 52.6435185 78.2816229 52.6435185 78.0906921 53.2199074 78.0906921 53.2199074 77.8997613 53.6041667 77.8997613 53.6041667 77.7088305 54.1805556 77.7088305 54.1805556 77.5178998 54.7569444 77.5178998 54.7569444 77.326969 55.1412037 77.326969 55.1412037 77.1360382 55.7175926 77.1360382 55.7175926 76.9451074 56.1018519 76.9451074 56.1018519 76.7541766 56.6782407 76.7541766 56.6782407 76.5632458 57.0625 76.5632458 57.0625 76.372315 57.4467593 76.372315 57.4467593 76.1813842 57.8310185 76.1813842 57.8310185 75.9904535 58.2152778 75.9904535 58.2152778 75.7995227 58.599537 75.7995227 58.599537 75.6085919 58.9837963 75.6085919 58.9837963 75.4176611 59.3680556 75.4176611 59.3680556 75.2267303 59.7523148 75.2267303 59.7523148 75.0357995 60.1365741 75.0357995 60.1365741 74.8448687 60.3287037 74.8448687 60.3287037 74.6539379 60.712963 74.6539379 60.712963 74.4630072 61.0972222 74.4630072 61.0972222 74.2720764 61.2893519 74.2720764 61.2893519 74.0811456 61.6736111 74.0811456 61.6736111 73.8902148 62.0578704 73.8902148 62.0578704 73.699284 62.25 73.699284 62.25 73.5083532 62.6342593 73.5083532 62.6342593 73.3174224 62.8263889 73.3174224 62.8263889 73.1264916 63.2106481 73.1264916 63.2106481 72.9355609 63.4027778 72.9355609 63.4027778 72.7446301 63.5949074 72.7446301 63.5949074 72.5536993 63.9791667 72.5536993 63.9791667 72.3627685 64.1712963 72.3627685 64.1712963 72.1718377 64.5555556 72.1718377 64.5555556 71.9809069 64.7476852 71.9809069 64.7476852 71.7899761 64.9398148 71.7899761 64.9398148 71.5990453 65.1319444 71.5990453 65.1319444 71.4081146 65.5162037 71.4081146 65.5162037 71.2171838 65.7083333 71.2171838 65.7083333 71.026253 65.900463 71.026253 65.900463 70.8353222 66.0925926 70.8353222 66.0925926 70.6443914 66.4768519 70.6443914 66.4768519 70.4534606 66.6689815 70.4534606 66.6689815 70.2625298 66.8611111 70.2625298 66.8611111 70.071599 67.0532407 70.071599 67.0532407 69.8806683 67.2453704 69.8806683 67.2453704 69.6897375 67.4375 69.6897375 67.4375 69.4988067 67.6296296 69.4988067 67.6296296 69.3078759 67.8217593 69.3078759 67.8217593 69.1169451 68.0138889 69.1169451 68.0138889 68.9260143 68.3981481 68.9260143 68.3981481 68.7350835 68.5902778 68.7350835 68.5902778 68.5441527 68.7824074 68.5441527 68.7824074 68.353222 68.974537 68.353222 68.974537 68.1622912 69.1666667 68.1622912 69.1666667 67.9713604 69.3587963 67.9713604 69.3587963 67.5894988 69.5509259 67.5894988 69.5509259 67.398568 69.7430556 67.398568 69.7430556 67.2076372 69.9351852 67.2076372 69.9351852 67.0167064 70.1273148 67.0167064 70.1273148 66.8257757 70.3194444 66.8257757 70.3194444 66.6348449 70.5115741 66.6348449 70.5115741 66.4439141 70.7037037 66.4439141 70.7037037 66.2529833 70.8958333 66.2529833 70.8958333 66.0620525 71.087963 66.0620525 71.087963 65.6801909 71.2800926 65.6801909 71.2800926 65.4892601 71.4722222 65.4892601 71.4722222 65.2983294 71.6643519 65.2983294 71.6643519 65.1073986 71.8564815 65.1073986 71.8564815 64.725537 72.0486111 64.725537 72.0486111 64.5346062 72.2407407 64.5346062 72.2407407 64.3436754 72.4328704 64.3436754 72.4328704 64.1527446 72.625 64.1527446 72.625 63.7708831 72.8171296 63.7708831 72.8171296 63.5799523 73.0092593 63.5799523 73.0092593 63.1980907 73.2013889 63.1980907 73.2013889 63.0071599 73.3935185 63.0071599 73.3935185 62.8162291 73.5856481 62.8162291 73.5856481 62.4343675 73.7777778 62.4343675 73.7777778 62.2434368 73.9699074 62.2434368 73.9699074 61.8615752 74.162037 61.8615752 74.162037 61.6706444 74.3541667 61.6706444 74.3541667 61.2887828 74.5462963 61.2887828 74.5462963 60.9069212 74.7384259 60.9069212 74.7384259 60.7159905 74.9305556 60.7159905 74.9305556 60.3341289 75.1226852 60.3341289 75.1226852 59.9522673 75.3148148 59.9522673 75.3148148 59.7613365 75.5069444 59.7613365 75.5069444 59.3794749 75.6990741 59.3794749 75.6990741 58.9976134 75.8912037 58.9976134 75.8912037 58.6157518 76.0833333 58.6157518 76.0833333 58.2338902 76.275463 58.2338902 76.275463 57.8520286 76.4675926 57.8520286 76.4675926 57.4701671 76.6597222 57.4701671 76.6597222 57.0883055 76.8518519 57.0883055 76.8518519 56.7064439 77.0439815 56.7064439 77.0439815 56.3245823 77.2361111 56.3245823 77.2361111 55.75179 77.4282407 55.75179 77.4282407 55.3699284 77.6203704 55.3699284 77.6203704 54.0334129 77.4282407 54.0334129 77.4282407 53.6515513 77.2361111 53.6515513 77.2361111 53.2696897 77.0439815 53.2696897 77.0439815 53.0787589 76.8518519 53.0787589 76.8518519 52.8878282 76.6597222 52.8878282 76.6597222 52.6968974 76.275463 52.6968974 76.275463 52.5059666 75.8912037 52.5059666 75.8912037 52.3150358 74.5462963 52.3150358 74.5462963 52.5059666 74.162037 52.5059666 74.162037 52.6968974 73.7777778 52.6968974 73.7777778 52.8878282 73.5856481 52.8878282 73.5856481 53.0787589 73.3935185 53.0787589 73.3935185 53.2696897 73.2013889 53.2696897 73.2013889 53.6515513 73.0092593 53.6515513 73.0092593 54.0334129 72.8171296 54.0334129 72.8171296 54.4152745 72.625 54.4152745 72.625 54.797136 72.4328704 54.797136 72.4328704 55.1789976 72.2407407 55.1789976 72.2407407 55.5608592 72.0486111 55.5608592 72.0486111 55.9427208 71.8564815 55.9427208 71.8564815 56.3245823 71.6643519 56.3245823 71.6643519 56.7064439 71.4722222 56.7064439 71.4722222 57.0883055 71.2800926 57.0883055 71.2800926 57.4701671 71.087963 57.4701671 71.087963 57.8520286 70.8958333 57.8520286 70.8958333 58.0429594 70.7037037 58.0429594 70.7037037 58.424821 70.5115741 58.424821 70.5115741 58.8066826 70.3194444 58.8066826 70.3194444 58.9976134 70.1273148 58.9976134 70.1273148 59.3794749 69.9351852 59.3794749 69.9351852 59.5704057 69.7430556 59.5704057 69.7430556 59.9522673 69.5509259 59.9522673 69.5509259 60.1431981 69.3587963 60.1431981 69.3587963 60.5250597 69.1666667 60.5250597 69.1666667 60.7159905 68.974537 60.7159905 68.974537 60.9069212 68.7824074 60.9069212 68.7824074 61.2887828 68.5902778 61.2887828 68.5902778 61.4797136 68.3981481 61.4797136 68.3981481 61.6706444 68.2060185 61.6706444 68.2060185 62.052506 68.0138889 62.052506 68.0138889 62.2434368 67.8217593 62.2434368 67.8217593 62.4343675 67.6296296 62.4343675 67.6296296 62.6252983 67.4375 62.6252983 67.4375 63.0071599 67.2453704 63.0071599 67.2453704 63.1980907 67.0532407 63.1980907 67.0532407 63.3890215 66.8611111 63.3890215 66.8611111 63.5799523 66.6689815 63.5799523 66.6689815 63.7708831 66.4768519 63.7708831 66.4768519 63.9618138 66.2847222 63.9618138 66.2847222 64.1527446 66.0925926 64.1527446 66.0925926 64.3436754 65.900463 64.3436754 65.900463 64.5346062 65.7083333 64.5346062 65.7083333 64.725537 65.5162037 64.725537 65.5162037 64.9164678 65.3240741 64.9164678 65.3240741 65.1073986 65.1319444 65.1073986 65.1319444 65.2983294 64.9398148 65.2983294 64.9398148 65.4892601 64.7476852 65.4892601 64.7476852 65.6801909 64.5555556 65.6801909 64.5555556 65.8711217 64.3634259 65.8711217 64.3634259 66.0620525 64.1712963 66.0620525 64.1712963 66.2529833 63.9791667 66.2529833 63.9791667 66.4439141 63.787037 66.4439141 63.787037 66.6348449 63.5949074 66.6348449 63.5949074 66.8257757 63.4027778 66.8257757 63.4027778 67.0167064 63.0185185 67.0167064 63.0185185 67.2076372 62.8263889 67.2076372 62.8263889 67.398568 62.6342593 67.398568 62.6342593 67.5894988 62.4421296 67.5894988 62.4421296 67.7804296 62.0578704 67.7804296 62.0578704 67.9713604 61.8657407 67.9713604 61.8657407 68.1622912 61.6736111 68.1622912 61.6736111 68.353222 61.2893519 68.353222 61.2893519 68.5441527 61.0972222 68.5441527 61.0972222 68.7350835 60.9050926 68.7350835 60.9050926 68.9260143 60.5208333 68.9260143 60.5208333 69.1169451 60.3287037 69.1169451 60.3287037 69.3078759 59.9444444 69.3078759 59.9444444 69.4988067 59.7523148 69.4988067 59.7523148 69.6897375 59.3680556 69.6897375 59.3680556 69.8806683 59.1759259 69.8806683 59.1759259 70.071599 58.7916667 70.071599 58.7916667 70.2625298 58.4074074 70.2625298 58.4074074 70.4534606 58.2152778 70.4534606 58.2152778 70.6443914 57.8310185 70.6443914 57.8310185 70.8353222 57.4467593 70.8353222 57.4467593 71.026253 57.0625 71.026253 57.0625 71.2171838 56.6782407 71.2171838 56.6782407 71.4081146 56.4861111 71.4081146 56.4861111 71.5990453 56.1018519 71.5990453 56.1018519 71.7899761 55.525463 71.7899761 55.525463 71.9809069 55.1412037 71.9809069 55.1412037 72.1718377 54.7569444 72.1718377 54.7569444 72.3627685 54.3726852 72.3627685 54.3726852 72.5536993 53.7962963 72.5536993 53.7962963 72.7446301 53.412037 72.7446301 53.412037 72.9355609 52.8356481 72.9355609 52.8356481 73.1264916 52.4513889 73.1264916 52.4513889 73.3174224 51.875 73.3174224 51.875 73.5083532 51.2986111 73.5083532 51.2986111 73.699284 50.7222222 73.699284 50.7222222 73.8902148 49.9537037 73.8902148 49.9537037 74.0811456 49.3773148 74.0811456 49.3773148 74.2720764 48.4166667 74.2720764 48.4166667 74.4630072 47.6481481 74.4630072 47.6481481 74.6539379 46.6875 74.6539379 46.6875 74.8448687 45.5347222 74.8448687 45.5347222 75.0357995 43.8055556 75.0357995 43.8055556 75.2267303 36.6967593 75.2267303 36.6967593 75.0357995 35.1597222 75.0357995 35.1597222 74.8448687 34.0069444 74.8448687 34.0069444 74.6539379 33.0462963 74.6539379 33.0462963 74.4630072 32.0856481 74.4630072 32.0856481 74.2720764 31.3171296 74.2720764 31.3171296 74.0811456 30.5486111 74.0811456 30.5486111 73.8902148 29.9722222 73.8902148 29.9722222 73.699284 29.3958333 73.699284 29.3958333 73.5083532 28.8194444 73.5083532 28.8194444 73.3174224 28.2430556 73.3174224 28.2430556 73.1264916 27.6666667 73.1264916 27.6666667 72.9355609 27.2824074 72.9355609 27.2824074 72.7446301 26.7060185 72.7446301 26.7060185 72.5536993 26.3217593 72.5536993 26.3217593 72.3627685 25.9375 72.3627685 25.9375 72.1718377 25.3611111 72.1718377 25.3611111 71.9809069 24.9768519 71.9809069 24.9768519 71.7899761 24.5925926 71.7899761 24.5925926 71.5990453 24.2083333 71.5990453 24.2083333 71.4081146 23.8240741 71.4081146 23.8240741 71.2171838 23.4398148 71.2171838 23.4398148 71.026253 23.0555556 71.026253 23.0555556 70.8353222 22.8634259 70.8353222 22.8634259 70.6443914 22.4791667 70.6443914 22.4791667 70.4534606 22.0949074 70.4534606 22.0949074 70.2625298 21.9027778 70.2625298 21.9027778 70.071599 21.5185185 70.071599 21.5185185 69.8806683 21.1342593 69.8806683 21.1342593 69.6897375 20.9421296 69.6897375 20.9421296 69.4988067 20.5578704 69.4988067 20.5578704 69.3078759 20.3657407 69.3078759 20.3657407 69.1169451 19.9814815 69.1169451 19.9814815 68.9260143 19.7893519 68.9260143 19.7893519 68.7350835 19.5972222 68.7350835 19.5972222 68.5441527 19.212963 68.5441527 19.212963 68.353222 19.0208333 68.353222 19.0208333 68.1622912 18.8287037 68.1622912 18.8287037 67.9713604 18.4444444 67.9713604 18.4444444 67.7804296 18.2523148 67.7804296 18.2523148 67.5894988 18.0601852 67.5894988 18.0601852 67.398568 17.8680556 67.398568 17.8680556 67.2076372 17.4837963 67.2076372 17.4837963 67.0167064 17.2916667 67.0167064 17.2916667 66.8257757 17.099537 66.8257757 17.099537 66.6348449 16.9074074 66.6348449 16.9074074 66.4439141 16.7152778 66.4439141 16.7152778 66.2529833 16.5231481 66.2529833 16.5231481 66.0620525 16.1388889 66.0620525 16.1388889 65.8711217 15.9467593 65.8711217 15.9467593 65.6801909 15.7546296 65.6801909 15.7546296 65.4892601 15.5625 65.4892601 15.5625 65.2983294 15.3703704 65.2983294 15.3703704 65.1073986 15.1782407 65.1073986 15.1782407 64.9164678 14.9861111 64.9164678 14.9861111 64.725537 14.7939815 64.725537 14.7939815 64.5346062 14.6018519 64.5346062 14.6018519 64.3436754 14.4097222 64.3436754 14.4097222 64.1527446 14.2175926 64.1527446 14.2175926 63.9618138 14.025463 63.9618138 14.025463 63.5799523 13.8333333 63.5799523 13.8333333 63.3890215 13.6412037 63.3890215 13.6412037 63.1980907 13.4490741 63.1980907 13.4490741 63.0071599 13.2569444 63.0071599 13.2569444 62.8162291 13.0648148 62.8162291 13.0648148 62.6252983 12.8726852 62.6252983 12.8726852 62.2434368 12.6805556 62.2434368 12.6805556 62.052506 12.4884259 62.052506 12.4884259 61.8615752 12.2962963 61.8615752 12.2962963 61.6706444 12.1041667 61.6706444 12.1041667 61.2887828 11.912037 61.2887828 11.912037 61.097852 11.7199074 61.097852 11.7199074 60.9069212 11.5277778 60.9069212 11.5277778 60.5250597 11.3356481 60.5250597 11.3356481 60.3341289 11.1435185 60.3341289 11.1435185 59.9522673 10.9513889 59.9522673 10.9513889 59.7613365 10.7592593 59.7613365 10.7592593 59.3794749 10.5671296 59.3794749 10.5671296 59.1885442 10.375 59.1885442 10.375 58.8066826 10.1828704 58.8066826 10.1828704 58.6157518 9.99074074 58.6157518 9.99074074 58.2338902 9.79861111 58.2338902 9.79861111 58.0429594 9.60648148 58.0429594 9.60648148 57.6610979 9.41435185 57.6610979 9.41435185 57.2792363 9.22222222 57.2792363 9.22222222 56.8973747 9.03009259 56.8973747 9.03009259 56.5155131 8.83796296 56.5155131 8.83796296 56.1336516 8.64583333 56.1336516 8.64583333 55.9427208 8.4537037 55.9427208 8.4537037 55.5608592 8.26157407 55.5608592 8.26157407 54.9880668 8.06944444 54.9880668 8.06944444 54.6062053 7.87731481 54.6062053 7.87731481 54.2243437 7.68518519 54.2243437 7.68518519 53.8424821 7.49305556 53.8424821 7.49305556 53.2696897 7.30092593 53.2696897 7.30092593 52.8878282 7.1087963 52.8878282 7.1087963 52.3150358 6.91666667 52.3150358 6.91666667 51.7422434 6.72453704 51.7422434 6.72453704 51.3603819 6.53240741 51.3603819 6.53240741 50.7875895 6.34027778 50.7875895 6.34027778 50.0238663 6.14814815 50.0238663 6.14814815 49.451074 5.95601852 49.451074 5.95601852 48.6873508 5.76388889 48.6873508 5.76388889 47.9236277 5.57175926 47.9236277 5.57175926 46.9689737 5.37962963 46.9689737 5.37962963 46.0143198 5.1875 46.0143198 5.1875 44.6778043 4.99537037 44.6778043 4.99537037 42.7684964 4.80324074 42.7684964 4.80324074 37.2315036 4.99537037 37.2315036 4.99537037 35.3221957 5.1875 35.3221957 5.1875 34.176611 5.37962963 34.176611 5.37962963 33.0310263 5.57175926 33.0310263 5.57175926 32.0763723 5.76388889 32.0763723 5.76388889 31.3126492 5.95601852 31.3126492 5.95601852 30.548926 6.14814815 30.548926 6.14814815 29.9761337 6.34027778 29.9761337 6.34027778 29.4033413 6.53240741 29.4033413 6.53240741 28.8305489 6.72453704 28.8305489 6.72453704 28.2577566 6.91666667 28.2577566 6.91666667 27.6849642 7.1087963 27.6849642 7.1087963 27.1121718 7.30092593 27.1121718 7.30092593 26.7303103 7.49305556 26.7303103 7.49305556 26.1575179 7.68518519 26.1575179 7.68518519 25.7756563 7.87731481 25.7756563 7.87731481 25.3937947 8.06944444 25.3937947 8.06944444 25.0119332 8.26157407 25.0119332 8.26157407 24.6300716 8.4537037 24.6300716 8.4537037 24.24821 8.64583333 24.24821 8.64583333 23.8663484 8.83796296 23.8663484 8.83796296 23.4844869 9.03009259 23.4844869 9.03009259 23.1026253 9.22222222 23.1026253 9.22222222 22.7207637 9.41435185 22.7207637 9.41435185 22.3389021 9.60648148 22.3389021 9.60648148 22.1479714 9.79861111 22.1479714 9.79861111 21.7661098 9.99074074 21.7661098 9.99074074 21.3842482 10.1828704 21.3842482 10.1828704 21.1933174 10.375 21.1933174 10.375 20.8114558 10.5671296 20.8114558 10.5671296 20.6205251 10.7592593 20.6205251 10.7592593 20.2386635 10.9513889 20.2386635 10.9513889 20.0477327 11.1435185 20.0477327 11.1435185 19.6658711 11.3356481 19.6658711 11.3356481 19.4749403 11.5277778 19.4749403 11.5277778 19.2840095 11.7199074 19.2840095 11.7199074 18.902148 11.912037 18.902148 11.912037 18.7112172 12.1041667 18.7112172 12.1041667 18.5202864 12.2962963 18.5202864 12.2962963 18.1384248 12.4884259 18.1384248 12.4884259 17.947494 12.6805556 17.947494 12.6805556 17.7565632 12.8726852 17.7565632 12.8726852 17.5656325 13.0648148 17.5656325 13.0648148 17.1837709 13.2569444 17.1837709 13.2569444 16.9928401 13.4490741 16.9928401 13.4490741 16.8019093 13.6412037 16.8019093 13.6412037 16.6109785 13.8333333 16.6109785 13.8333333 16.4200477 14.025463 16.4200477 14.025463 16.2291169 14.2175926 16.2291169 14.2175926 16.0381862 14.4097222 16.0381862 14.4097222 15.8472554 14.6018519 15.8472554 14.6018519 15.6563246 14.7939815 15.6563246 14.7939815 15.274463 14.9861111 15.274463 14.9861111 15.0835322 15.1782407 15.0835322 15.1782407 14.8926014 15.3703704 14.8926014 15.3703704 14.7016706 15.7546296 14.7016706 15.7546296 14.5107399 15.9467593 14.5107399 15.9467593 14.3198091 16.1388889 14.3198091 16.1388889 14.1288783 16.3310185 14.1288783 16.3310185 13.9379475 16.5231481 13.9379475 16.5231481 13.7470167 16.7152778 13.7470167 16.7152778 13.5560859 16.9074074 13.5560859 16.9074074 13.3651551 17.099537 13.3651551 17.099537 13.1742243 17.2916667 13.1742243 17.2916667 12.9832936 17.6759259 12.9832936 17.6759259 12.7923628 17.8680556 12.7923628 17.8680556 12.601432 18.0601852 12.601432 18.0601852 12.4105012 18.2523148 12.4105012 18.2523148 12.2195704 18.6365741 12.2195704 18.6365741 12.0286396 18.8287037 12.0286396 18.8287037 11.8377088 19.0208333 11.8377088 19.0208333 11.646778 19.212963 11.646778 19.212963 11.4558473 19.5972222 11.4558473 19.5972222 11.2649165 19.7893519 11.2649165 19.7893519 11.0739857 20.1736111 11.0739857 20.1736111 10.8830549 20.3657407 10.8830549 20.3657407 10.6921241 20.75 10.6921241 20.75 10.5011933 20.9421296 10.5011933 20.9421296 10.3102625 21.3263889 10.3102625 21.3263889 10.1193317 21.5185185 10.1193317 21.5185185 9.92840095 21.9027778 9.92840095 21.9027778 9.73747017 22.287037 9.73747017 22.287037 9.54653938 22.4791667 9.54653938 22.4791667 9.35560859 22.8634259 9.35560859 22.8634259 9.1646778 23.2476852 9.1646778 23.2476852 8.97374702 23.6319444 8.97374702 23.6319444 8.78281623 24.0162037 8.78281623 24.0162037 8.59188544 24.400463 8.59188544 24.400463 8.40095465 24.7847222 8.40095465 24.7847222 8.21002387 25.1689815 8.21002387 25.1689815 8.01909308 25.5532407 8.01909308 25.5532407 7.82816229 25.9375 7.82816229 25.9375 7.6372315 26.3217593 7.6372315 26.3217593 7.44630072 26.8981481 7.44630072 26.8981481 7.25536993 27.2824074 7.25536993 27.2824074 7.06443914 27.8587963 7.06443914 27.8587963 6.87350835 28.2430556 6.87350835 28.2430556 6.68257757 28.8194444 6.68257757 28.8194444 6.49164678 29.3958333 6.49164678 29.3958333 6.30071599 30.1643519 6.30071599 30.1643519 6.1097852 30.7407407 6.1097852 30.7407407 5.91885442 31.5092593 5.91885442 31.5092593 5.72792363 32.2777778 5.72792363 32.2777778 5.53699284 33.2384259 5.53699284 33.2384259 5.34606205 34.1990741 5.34606205 34.1990741 5.15513126 35.3518519 5.15513126 35.3518519 4.96420048 37.0810185 4.96420048 37.0810185 4.77326969 43.4212963 4.77326969 43.4212963 4.96420048 45.150463 4.96420048 45.150463 5.15513126 46.4953704 5.15513126 46.4953704 5.34606205 47.4560185 5.34606205 47.4560185 5.53699284 48.4166667 5.53699284 48.4166667 5.72792363 49.1851852 5.72792363 49.1851852 5.91885442 49.9537037 5.91885442 49.9537037 6.1097852 50.5300926 6.1097852 50.5300926 6.30071599 51.1064815 6.30071599 51.1064815 6.49164678 51.6828704 6.49164678 51.6828704 6.68257757 52.2592593 6.68257757 52.2592593 6.87350835 52.8356481 6.87350835 52.8356481 7.06443914 53.2199074 7.06443914 53.2199074 7.25536993 53.7962963 7.25536993 53.7962963 7.44630072 54.1805556 7.44630072 54.1805556 7.6372315 54.7569444 7.6372315 54.7569444 7.82816229 55.1412037 7.82816229 55.1412037 8.01909308 55.525463 8.01909308 55.525463 8.21002387 55.9097222 8.21002387 55.9097222 8.40095465 56.2939815 8.40095465 56.2939815 8.59188544 56.6782407 8.59188544 56.6782407 8.78281623 57.0625 8.78281623 57.0625 8.97374702 57.4467593 8.97374702 57.4467593 9.1646778 57.8310185 9.1646778 57.8310185 9.35560859 58.0231481 9.35560859 58.0231481 9.54653938 58.4074074 9.54653938 58.4074074 9.73747017 58.7916667 9.73747017 58.7916667 9.92840095 58.9837963 9.92840095 58.9837963 10.1193317 59.3680556 10.1193317 59.3680556 10.3102625 59.7523148 10.3102625 59.7523148 10.5011933 59.9444444 10.5011933 59.9444444 10.6921241 60.3287037 10.6921241 60.3287037 10.8830549 60.5208333 10.8830549 60.5208333 11.0739857 60.712963 11.0739857 60.712963 11.2649165 61.0972222 11.2649165 61.0972222 11.4558473 61.2893519 11.4558473 61.2893519 11.646778 61.6736111 11.646778 61.6736111 11.8377088 61.8657407 11.8377088 61.8657407 12.0286396 62.0578704 12.0286396 62.0578704 12.2195704 62.25 12.2195704 62.25 12.4105012 62.6342593 12.4105012 62.6342593 12.601432 62.8263889 12.601432 62.8263889 12.7923628 63.0185185 12.7923628 63.0185185 12.9832936 63.2106481 12.9832936 63.2106481 13.1742243 63.5949074 13.1742243 63.5949074 13.3651551 63.787037 13.3651551 63.787037 13.5560859 63.9791667 13.5560859 63.9791667 13.7470167 64.1712963 13.7470167 64.1712963 13.9379475 64.3634259 13.9379475 64.3634259 14.1288783 64.5555556 14.1288783 64.5555556 14.3198091 64.7476852 14.3198091 64.7476852 14.5107399 64.9398148 14.5107399 64.9398148 14.7016706 65.1319444 14.7016706 65.1319444 14.8926014 65.3240741 14.8926014 65.3240741 15.0835322 65.5162037 15.0835322 65.5162037 15.274463 65.7083333 15.274463 65.7083333 15.4653938 65.900463 15.4653938 65.900463 15.6563246 66.0925926 15.6563246 66.0925926 15.8472554 66.2847222 15.8472554 66.2847222 16.0381862 66.4768519 16.0381862 66.4768519 16.2291169 66.6689815 16.2291169 66.6689815 16.4200477 66.8611111 16.4200477 66.8611111 16.6109785 67.0532407 16.6109785 67.0532407 16.8019093 67.2453704 16.8019093 67.2453704 17.1837709 67.4375 17.1837709 67.4375 17.3747017 67.6296296 17.3747017 67.6296296 17.5656325 67.8217593 17.5656325 67.8217593 17.7565632 68.0138889 17.7565632 68.0138889 18.1384248 68.2060185 18.1384248 68.2060185 18.3293556 68.3981481 18.3293556 68.3981481 18.5202864 68.5902778 18.5202864 68.5902778 18.7112172 68.7824074 18.7112172 68.7824074 19.0930788 68.974537 19.0930788 68.974537 19.2840095 69.1666667 19.2840095 69.1666667 19.6658711 69.3587963 19.6658711 69.3587963 19.8568019 69.5509259 19.8568019 69.5509259 20.0477327 69.7430556 20.0477327 69.7430556 20.4295943 69.9351852 20.4295943 69.9351852 20.6205251 70.1273148 20.6205251 70.1273148 21.0023866 70.3194444 21.0023866 70.3194444 21.3842482 70.5115741 21.3842482 70.5115741 21.575179 70.7037037 21.575179 70.7037037 21.9570406 70.8958333 21.9570406 70.8958333 22.3389021 71.087963 22.3389021 71.087963 22.5298329 71.2800926 22.5298329 71.2800926 22.9116945 71.4722222 22.9116945 71.4722222 23.2935561 71.6643519 23.2935561 71.6643519 23.6754177 71.8564815 23.6754177 71.8564815 24.0572792 72.0486111 24.0572792 72.0486111 24.4391408 72.2407407 24.4391408 72.2407407 24.8210024 72.4328704 24.8210024 72.4328704 25.202864 72.625 25.202864 72.625 25.5847255 72.8171296 25.5847255 72.8171296 25.9665871 73.0092593 25.9665871 73.0092593 26.5393795 73.2013889 26.5393795 73.2013889 26.7303103 73.3935185 26.7303103 73.3935185 26.9212411 73.5856481 26.9212411 73.5856481 27.1121718 73.7777778 27.1121718 73.7777778 27.3031026 73.9699074 27.3031026 73.9699074 27.4940334 74.3541667 27.4940334 74.3541667 27.6849642 75.8912037 27.6849642 75.8912037 27.4940334 76.4675926 27.4940334 76.4675926 27.3031026 76.6597222 27.3031026 76.6597222 27.1121718 76.8518519 27.1121718 76.8518519 26.9212411 77.0439815 26.9212411 77.0439815 26.7303103 77.2361111 26.7303103 77.2361111 26.3484487 77.4282407 26.3484487 77.4282407 25.9665871 77.6203704 25.9665871 77.6203704 24.8210024 77.4282407 24.8210024 77.4282407 24.24821 77.2361111 24.24821 77.2361111 23.8663484 77.0439815 23.8663484 77.0439815 23.2935561 76.8518519 23.2935561 76.8518519 22.9116945 76.6597222 22.9116945 76.6597222 22.5298329 76.4675926 22.5298329 76.4675926 22.1479714 76.275463 22.1479714 76.275463 21.7661098 76.0833333 21.7661098 76.0833333 21.3842482 75.8912037 21.3842482 75.8912037 21.0023866 75.6990741 21.0023866 75.6990741 20.6205251 75.5069444 20.6205251 75.5069444 20.4295943 75.3148148 20.4295943 75.3148148 20.0477327 75.1226852 20.0477327 75.1226852 19.6658711 74.9305556 19.6658711 74.9305556 19.4749403 74.7384259 19.4749403 74.7384259 19.0930788 74.5462963 19.0930788 74.5462963 18.7112172 74.3541667 18.7112172 74.3541667 18.5202864 74.162037 18.5202864 74.162037 18.1384248 73.9699074 18.1384248 73.9699074 17.947494 73.7777778 17.947494 73.7777778 17.5656325 73.5856481 17.5656325 73.5856481 17.3747017 73.3935185 17.3747017 73.3935185 16.9928401 73.2013889 16.9928401 73.2013889 16.8019093 73.0092593 16.8019093 73.0092593 16.4200477 72.8171296 16.4200477 72.8171296 16.2291169 72.625 16.2291169 72.625 16.0381862 72.4328704 16.0381862 72.4328704 15.6563246 72.2407407 15.6563246 72.2407407 15.4653938 72.0486111 15.4653938 72.0486111 15.274463 71.8564815 15.274463 71.8564815 15.0835322 71.6643519 15.0835322 71.6643519 14.7016706 71.4722222 14.7016706 71.4722222 14.5107399 71.2800926 14.5107399 71.2800926 14.3198091 71.087963 14.3198091 71.087963 14.1288783 70.8958333 14.1288783 70.8958333 13.7470167 70.7037037 13.7470167 70.7037037 13.5560859 70.5115741 13.5560859 70.5115741 13.3651551 70.3194444 13.3651551 70.3194444 13.1742243 70.1273148 13.1742243 70.1273148 12.9832936 69.9351852 12.9832936 69.9351852 12.7923628 69.7430556 12.7923628 69.7430556 12.601432 69.5509259 12.601432 69.5509259 12.4105012 69.3587963 12.4105012 69.3587963 12.2195704 69.1666667 12.2195704 69.1666667 12.0286396 68.974537 12.0286396 68.974537 11.8377088 68.7824074 11.8377088 68.7824074 11.646778 68.5902778 11.646778 68.5902778 11.4558473 68.3981481 11.4558473 68.3981481 11.2649165 68.2060185 11.2649165 68.2060185 11.0739857 68.0138889 11.0739857 68.0138889 10.8830549 67.8217593 10.8830549 67.8217593 10.6921241 67.6296296 10.6921241 67.6296296 10.5011933 67.4375 10.5011933 67.4375 10.3102625 67.2453704 10.3102625 67.2453704 10.1193317 67.0532407 10.1193317 67.0532407 9.92840095 66.8611111 9.92840095 66.8611111 9.73747017 66.4768519 9.73747017 66.4768519 9.54653938 66.2847222 9.54653938 66.2847222 9.35560859 66.0925926 9.35560859 66.0925926 9.1646778 65.900463 9.1646778 65.900463 8.97374702 65.7083333 8.97374702 65.7083333 8.78281623 65.3240741 8.78281623 65.3240741 8.59188544 65.1319444 8.59188544 65.1319444 8.40095465 64.9398148 8.40095465 64.9398148 8.21002387 64.7476852 8.21002387 64.7476852 8.01909308 64.3634259 8.01909308 64.3634259 7.82816229 64.1712963 7.82816229 64.1712963 7.6372315 63.9791667 7.6372315 63.9791667 7.44630072 63.5949074 7.44630072 63.5949074 7.25536993 63.4027778 7.25536993 63.4027778 7.06443914 63.0185185 7.06443914 63.0185185 6.87350835 62.8263889 6.87350835 62.8263889 6.68257757 62.4421296 6.68257757 62.4421296 6.49164678 62.25 6.49164678 62.25 6.30071599 61.8657407 6.30071599 61.8657407 6.1097852 61.6736111 6.1097852 61.6736111 5.91885442 61.2893519 5.91885442 61.2893519 5.72792363 60.9050926 5.72792363 60.9050926 5.53699284 60.712963 5.53699284 60.712963 5.34606205 60.3287037 5.34606205 60.3287037 5.15513126 59.9444444 5.15513126 59.9444444 4.96420048 59.5601852 4.96420048 59.5601852 4.77326969 59.3680556 4.77326969 59.3680556 4.5823389 58.9837963 4.5823389 58.9837963 4.39140811 58.599537 4.39140811 58.599537 4.20047733 58.2152778 4.20047733 58.2152778 4.00954654 57.8310185 4.00954654 57.8310185 3.81861575 57.4467593 3.81861575 57.4467593 3.62768496 56.8703704 3.62768496 56.8703704 3.43675418 56.4861111 3.43675418 56.4861111 3.24582339 56.1018519 3.24582339 56.1018519 3.0548926 55.525463 3.0548926 55.525463 2.86396181 55.1412037 2.86396181 55.1412037 2.67303103 54.5648148 2.67303103 54.5648148 2.48210024 54.1805556 2.48210024 54.1805556 2.29116945 53.6041667 2.29116945 53.6041667 2.10023866 53.0277778 2.10023866 53.0277778 1.90930788 52.4513889 1.90930788 52.4513889 1.71837709 51.875 1.71837709 51.875 1.5274463 51.1064815 1.5274463 51.1064815 1.33651551 50.337963 1.33651551 50.337963 1.14558473 49.5694444 1.14558473 49.5694444 0.954653938 48.8009259 0.954653938 48.8009259 0.76372315 47.8402778 0.76372315 47.8402778 0.572792363 46.6875 0.572792363 46.6875 0.381861575 45.3425926 0.381861575 45.3425926 0.190930788 43.6134259 0.190930788 43.6134259 0 36.8888889 0 36.8888889 0.190930788 35.1597222 0.190930788 35.1597222 0.381861575 33.8148148 0.381861575 33.8148148 0.572792363 32.8541667 0.572792363 32.8541667 0.76372315 31.8935185 0.76372315 31.8935185 0.954653938 30.9328704 0.954653938 30.9328704 1.14558473 30.1643519 1.14558473 30.1643519 1.33651551 29.3958333 1.33651551 29.3958333 1.5274463 28.8194444 1.5274463 28.8194444 1.71837709 28.2430556 1.71837709 28.2430556 1.90930788 27.6666667 1.90930788 27.6666667 2.10023866 27.0902778 2.10023866 27.0902778 2.29116945 26.5138889 2.29116945 26.5138889 2.48210024 25.9375 2.48210024 25.9375 2.67303103 25.5532407 2.67303103 25.5532407 2.86396181 24.9768519 2.86396181 24.9768519 3.0548926 24.5925926 3.0548926 24.5925926 3.24582339 24.2083333 3.24582339 24.2083333 3.43675418 23.6319444 3.43675418 23.6319444 3.62768496 23.2476852 3.62768496 23.2476852 3.81861575 22.8634259 3.81861575 22.8634259 4.00954654 22.4791667 4.00954654 22.4791667 4.20047733 22.0949074 4.20047733 22.0949074 4.39140811 21.7106481 4.39140811 21.7106481 4.5823389 21.3263889 4.5823389 21.3263889 4.77326969 20.9421296 4.77326969 20.9421296 4.96420048 20.75 4.96420048 20.75 5.15513126 20.3657407 5.15513126 20.3657407 5.34606205 19.9814815 5.34606205 19.9814815 5.53699284 19.5972222 5.53699284 19.5972222 5.72792363 19.4050926 5.72792363 19.4050926 5.91885442 19.0208333 5.91885442 19.0208333 6.1097852 18.8287037 6.1097852 18.8287037 6.30071599 18.4444444 6.30071599 18.4444444 6.49164678 18.0601852 6.49164678 18.0601852 6.68257757 17.8680556 6.68257757 17.8680556 6.87350835 17.4837963 6.87350835 17.4837963 7.06443914 17.2916667 7.06443914 17.2916667 7.25536993 17.099537 7.25536993 17.099537 7.44630072 16.7152778 7.44630072 16.7152778 7.6372315 16.5231481 7.6372315 16.5231481 7.82816229 16.1388889 7.82816229 16.1388889 8.01909308 15.9467593 8.01909308 15.9467593 8.21002387 15.7546296 8.21002387 15.7546296 8.40095465 15.5625 8.40095465 15.5625 8.59188544 15.1782407 8.59188544 15.1782407 8.78281623 14.9861111 8.78281623 14.9861111 8.97374702 14.7939815 8.97374702 14.7939815 9.1646778 14.6018519 9.1646778 14.6018519 9.35560859 14.2175926 9.35560859 14.2175926 9.54653938 14.025463 9.54653938 14.025463 9.73747017 13.8333333 9.73747017 13.8333333 9.92840095 13.6412037 9.92840095 13.6412037 10.1193317 13.4490741 10.1193317 13.4490741 10.3102625 13.2569444 10.3102625 13.2569444 10.5011933 13.0648148 10.5011933 13.0648148 10.6921241 12.8726852 10.6921241 12.8726852 10.8830549 12.6805556 10.8830549 12.6805556 11.0739857 12.2962963 11.0739857 12.2962963 11.2649165 12.1041667 11.2649165 12.1041667 11.4558473 11.912037 11.4558473 11.912037 11.646778 11.7199074 11.646778 11.7199074 11.8377088 11.5277778 11.8377088 11.5277778 12.0286396 11.3356481 12.0286396 11.3356481 12.2195704 11.1435185 12.2195704 11.1435185 12.601432 10.9513889 12.601432 10.9513889 12.7923628 10.7592593 12.7923628 10.7592593 12.9832936 10.5671296 12.9832936 10.5671296 13.1742243 10.375 13.1742243 10.375 13.3651551 10.1828704 13.3651551 10.1828704 13.5560859 9.99074074 13.5560859 9.99074074 13.7470167 9.79861111 13.7470167 9.79861111 13.9379475 9.60648148 13.9379475 9.60648148 14.1288783 9.41435185 14.1288783 9.41435185 14.5107399 9.22222222 14.5107399 9.22222222 14.7016706 9.03009259 14.7016706 9.03009259 14.8926014 8.83796296 14.8926014 8.83796296 15.0835322 8.64583333 15.0835322 8.64583333 15.4653938"></polygon>
            </g>
        </g>
    </g>
</svg>