<svg id="Layer_1" width="36px" height="36px" data-name="Layer 1" xmlns="http://www.w3.org/2000/svg" viewBox="0 0 36 36">
  <defs>
    <style>
      .logo-cls-1 {
        fill: #b90064;
      }
    </style>
  </defs>
  <path
    class="logo-cls-1"
    d="M129.11,5h0L122.4,3.18l-5.17-1.39L110.52,0h0a20.26,20.26,0,0,0-4,7.59,11.56,11.56,0,0,0,7.1,13.78l-2,7.36c-.09.3-.37,1.11-.9,1.18l-6.92.3a1.87,1.87,0,0,0-.34,0h0a1.28,1.28,0,0,0-1,.93l1.46.39,1,.28,5.83,1.56.12,0,1.18.31.1,0L118,35.34l1,.27,1.45.39a1.26,1.26,0,0,0-.41-1.31h0l-.26-.2L114,30.77c-.42-.32-.26-1.17-.19-1.47l2-7.36a11.54,11.54,0,0,0,13-8.4A20.34,20.34,0,0,0,129.11,5Zm-2.43,6a11.07,11.07,0,0,1-.41,1.88,9.7,9.7,0,0,1-1.78,3.3,8.78,8.78,0,0,1-5.25,3,9,9,0,0,1-2.48.08,8,8,0,0,1-1.8-.36,8.94,8.94,0,0,1-6.25-8.24,5.78,5.78,0,0,1,.92-3.79c1.65-2,4.08.06,5.38,1.38s2.23,2.88,3.63,4a3.15,3.15,0,0,0,4.76-.32,20.05,20.05,0,0,0,1.76-2.53c.24-.35.6-1.13,1.15-1a.7.7,0,0,1,.39.46.29.29,0,0,0,0,.09A5,5,0,0,1,126.68,11Z"
    transform="translate(-98 0)"></path>
</svg>
