<svg version="1.1" xmlns="http://www.w3.org/2000/svg" xmlns:xlink="http://www.w3.org/1999/xlink" width="249" height="29" x="0px" y="0px" viewBox="0 0 247 29" enable-background="new 0 0 247 29">
	<title>MerchantCantos</title>
	<g>
		<path d="M28.2,24.7v-11c0-3.2-1.2-4.8-4.2-4.8c-2.6,0-4.7,1.2-6.6,2.3h-0.1c-0.6-1.5-1.7-2.3-4.2-2.3c-2.2,0-4.5,1.1-6.2,2.2H6.7 l0.1-2L6.5,8.9L1,9.7v0.5l1.3,0.7c0.9,0.4,1,0.5,1,1.9v11.9c0,1.4-0.2,1.7-0.9,1.8L1,26.9v0.6h8.2v-0.6l-1.4-0.4 c-0.7-0.2-0.9-0.4-0.9-1.8V12c1-0.3,2.8-0.9,4.5-0.9c2.1,0,2.7,1,2.7,3.3v10.2c0,1.5-0.2,1.7-0.9,1.8l-1.4,0.4v0.6h8.2v-0.6 l-1.4-0.4c-0.6-0.2-0.9-0.5-0.9-1.8v-11c0-0.8,0-1.2-0.1-1.6c1.1-0.4,2.9-1,4.6-1c2.1,0,2.7,1,2.7,3.3v10.2c0,1.5-0.2,1.7-0.9,1.8 l-1.4,0.4v0.6h8.2v-0.6l-1.4-0.4C28.5,26.3,28.2,26,28.2,24.7z"></path>
		<path d="M39.3,8.9c-4.6,0-8.6,3.7-8.6,9.4c0,5.7,2.8,9.6,8.6,9.6c3.3,0,5.8-1.8,6.7-2.6v-1c-1.3,0.6-2.9,1.5-5.6,1.5 c-3.6,0-6-2.3-6.1-8.1h12C46.4,11.3,43.7,8.9,39.3,8.9z M34.4,16.6c0.2-4.6,2.2-6.7,4.8-6.7c2.7,0,3.3,2,3.3,6.3L34.4,16.6z"></path>
		<path d="M60.6,11c0-1.3-0.9-2.1-2.3-2.1c-1.7,0-3.8,1.2-5,2.4h-0.1l0.1-2.1l-0.2-0.2l-5.5,0.7v0.5l1.3,0.7c0.9,0.4,1,0.5,1,1.9 v11.9c0,1.4-0.2,1.7-0.9,1.8l-1.4,0.4v0.6h8.5v-0.6l-1.8-0.4c-0.7-0.1-0.9-0.4-0.9-1.8V12.5c0.6-0.7,2.2-1.5,2.9-1.5 c0.3,0,0.4,0.1,0.6,0.6c0.3,0.7,0.7,1.3,2,1.3C59.7,13,60.6,12.3,60.6,11z"></path>
		<path d="M109.3,24.4V13.5c0-3.1-1.9-4.6-6.1-4.6c-2.9,0-6.6,0.8-6.6,3c0,0.9,0.5,1.7,1.9,1.7c1.5,0,1.7-1,1.9-2.3 c0.1-1,0.6-1.4,2.1-1.4c2.9,0,3.3,1.4,3.3,3.8v3.7l-5.1,1.2c-2.3,0.5-5.1,1.8-5.1,4.7c0,3.1,2,4.7,5.3,4.7c2,0,4-0.9,4.8-2.1h0.2 c0.2,1.2,1.1,2.1,2.9,2.1c1.2,0,2.5-0.4,3.1-0.8v-0.5c-0.7,0-1.3-0.1-1.7-0.3C109.5,25.9,109.3,25.3,109.3,24.4z M105.8,24.5 c-0.5,0.9-1.7,1.7-3.4,1.7c-2,0-3.2-1.2-3.2-3.3c0-2.7,1.6-3.6,3.9-3.9l2.7-0.3V24.5z"></path>
		<path d="M130,24.7v-11c0-3.2-1.2-4.7-4.7-4.7c-2.2,0-4.8,1.1-6.5,2.2h-0.1l0.1-2.1l-0.2-0.1l-5.5,0.7v0.5l1.3,0.7 c0.9,0.4,1,0.5,1,1.9v11.9c0,1.4-0.2,1.7-0.9,1.8l-1.4,0.4v0.6h8.2v-0.6l-1.4-0.4c-0.7-0.2-0.9-0.4-0.9-1.8V12 c1-0.3,3.1-0.9,4.8-0.9c2.2,0,3,0.8,3,3.3v10.3c0,1.5-0.2,1.7-0.9,1.8l-1.4,0.4v0.6h8.2v-0.6l-1.4-0.4C130.3,26.3,130,26,130,24.7z "></path>
		<path d="M137.6,23.8V10.9h4.6l0.4-1.5h-5V5.2h-0.9c-1,2.7-2.7,4.4-5.1,5.1v0.6h2.4v13.3c0,2.7,1.8,3.7,4,3.7c2.3,0,3.9-1.1,4.6-1.6 v-0.7c-0.7,0.2-1.7,0.5-2.8,0.5C138.3,26,137.6,25.4,137.6,23.8z"></path>
		<path d="M152.7,10c1.2,0,1.4,0.2,1.6,1.6c0.1,1.5,0.7,2.8,2.6,2.8c1.5,0,2.5-1,2.5-2.5c0-2.2-2.1-3.3-5.6-3.3 c-5,0-10.8,2.3-10.8,9.8c0,5.8,3.2,9.6,8.9,9.6c3.8,0,6.4-2,7.4-3.2v-1.1c-1.3,0.7-2.9,1.3-5.1,1.3c-4,0-5.5-2.8-5.5-8.1 C148.6,11.2,150.7,10,152.7,10z"></path>
		<path d="M198.6,24.3V13.3c0-3.2-1.6-4.8-4.6-4.8c-2.6,0-4.9,1.2-6.8,2.5H187l0.1-2.3l-0.4-0.2l-7.5,0.9v0.7l1.2,0.8 c1,0.7,1.2,0.8,1.2,2.3v11c0,1.5-0.1,1.7-1.3,2l-0.9,0.2v1h9.9v-1l-0.9-0.2c-1.1-0.3-1.2-0.4-1.2-2.1V12.3c0.8-0.2,2.1-0.5,3.3-0.5 c1.7,0,2.4,0.7,2.4,2.8v9.5c0,1.7-0.1,1.8-1.2,2.1l-0.9,0.2v1h9.9v-1l-0.9-0.2C198.7,26,198.6,25.8,198.6,24.3z"></path>
		<path d="M240.1,15.5c-2.8-1.1-3.5-1.9-3.5-3.3c0-1.5,1-2.3,2.5-2.3c1.3,0,1.9,0.2,2.7,1.1c0.7,0.8,1.3,1.7,2,3h1l-0.2-4.8 c-1-0.4-2.8-0.7-4.9-0.7c-4.9,0-7.6,2.6-7.6,6c0,3.1,1.9,4.6,5.1,5.9c3.2,1.2,4.2,2,4.2,3.6c0,1.6-1.2,2.5-2.9,2.5 c-1.5,0-2.4-0.5-3.1-1.3c-0.9-1.1-1.6-2.1-2.3-3.5h-1l0.2,5.5c1.4,0.4,3.5,0.7,5.6,0.7c5.2,0,8-2.6,8-6.3 C246,18.8,244.4,17.1,240.1,15.5z"></path>
		<path d="M176.3,23.3v-9.8c0-3.5-2.6-4.9-7-4.9c-4.9,0-7.8,1.3-7.8,3.6c0,1.4,0.9,2.2,2.4,2.2c1.8,0,2.6-0.9,2.8-3.1 c0.1-1,0.4-1.3,1.5-1.3c2,0,2.5,0.9,2.5,3.8v3.1l-3.6,0.9c-4,1-6.4,2.3-6.4,5.5c0,3,2,4.7,5.3,4.7c2.3,0,3.9-1,4.8-2.2h0.2 c0.4,1.4,1.6,2.2,3.7,2.2c2.1,0,3.5-0.7,4.2-1.2v-0.9c-0.5,0-1.2-0.1-1.7-0.4C176.4,25.1,176.3,24.6,176.3,23.3z M170.6,24.4 c-0.3,0.6-1,1-2,1c-1.4,0-2.4-0.7-2.4-3.1c0-2.6,1-3.4,2.8-3.5l1.6-0.1V24.4z"></path>
		<path d="M92.7,24.7v-11c0-3.2-1.2-4.7-4.7-4.7c-2.2,0-4.8,1.1-6.5,2.2h0V8.4c0-0.1,0-0.2,0-0.3V5.2h0V1c-0.6,0.1-1.6,0.2-2.4,0.2 c-1,0-3.4-0.2-4.5-0.2c-4,0-6,1.5-6,3.8c0,1.4,1,2.8,3.2,4.1c-0.1,0-0.2,0-0.2,0c-0.5-0.1-1.1-0.1-1.7-0.1c-1.4,0-2.7,0.3-3.9,0.8 c0,0,0,0,0,0c-3.1,1.2-5.8,3.8-5.8,9.1c0,5.4,2.9,9.2,8.2,9.2c3.3,0,5.7-1.6,6.8-2.6v-1c-1.1,0.6-3.3,1.5-5.6,1.5 c-3.9,0-5.7-2.9-5.7-8.4c0-5.5,2.4-7.4,5.3-7.4c1.2,0,1.6,0.2,1.8,1.8c0.2,1,0.5,1.7,1.5,1.9c0,0,0,0,0,0c0,0,0,0,0,0 c0.1,0,0.3,0,0.5,0c0,0,0,0,0.1,0c0.2,0,0.4,0,0.7-0.1c0.3-0.1,0.6-0.3,0.8-0.5c0,0,0,0,0,0c0.1,0,0.1-0.1,0.2-0.2 c0.2-0.3,0.3-0.7,0.3-1.1c0-0.5-0.1-1-0.4-1.4c0,0,0,0,0,0c0-0.1-0.1-0.1-0.1-0.1c0,0,0,0,0-0.1c-0.7-0.8-1.5-1.2-2-1.7 c-1.2-1.2-1.6-2.1-1.6-3c0-1.8,1.2-3.4,4.6-3.4c0.7,0,1.9,0.1,2.6,0.2v2.9v6.1v13.4c0,1.4-0.2,1.7-0.9,1.8l-1.4,0.4v0.6h8.2v-0.6 l-1.4-0.4c-0.7-0.2-0.9-0.4-0.9-1.8V12c1-0.3,3.1-0.9,4.8-0.9c2.2,0,3,0.8,3,3.3v10.3c0,1.5-0.2,1.7-0.9,1.8l-1.4,0.4v0.6H95v-0.6 l-1.4-0.4C93,26.3,92.7,26,92.7,24.7z"></path>
		<path d="M221.7,8.6c-4.8,0-9.6,2.9-9.6,9.7c0,2.3,0.6,4.3,1.6,5.7c-1.4,1-3,1.1-3.2,1.1c-0.1,0-0.2,0-0.3,0c-1.8,0-2.3-0.7-2.3-2.5 V11.2h4.3l0.5-2.1h-4.7V4.4h-2c-1,2.8-3.1,4.9-5.9,6v0.9h2.2V23c0,3.5,1.7,4.9,4.9,4.9c2.2,0,3.7-0.7,4.7-1.4c0,0,0,0,0,0 c1.6-0.9,2.3-0.9,5.4,0.4c0,0,0,0,0,0c0.1,0,0.1,0.1,0.2,0.1l0,0c1.3,0.5,2.8,0.8,4.3,0.8c4.9,0,9.6-3,9.6-9.8 C231.4,11.7,226.9,8.6,221.7,8.6z M221.8,26.5c-2.6,0-3.8-1.6-3.8-8.8c0-6.1,1.3-7.7,3.5-7.7c2.4,0,3.8,1.3,3.8,8.5 C225.4,25.3,224,26.5,221.8,26.5z"></path>
	</g>
</svg>
