<?xml version="1.0" encoding="UTF-8" standalone="no"?>
<svg width="94px" height="80px" viewBox="0 0 94 80" version="1.1" xmlns="http://www.w3.org/2000/svg" xmlns:xlink="http://www.w3.org/1999/xlink">
    <!-- Generator: Sketch 3.8.3 (29802) - http://www.bohemiancoding.com/sketch -->
    <title>ry logo</title>
    <desc>Created with Sketch.</desc>
    <defs></defs>
    <g id="Work" stroke="none" stroke-width="1" fill="none" fill-rule="evenodd">
        <g id="Work-Desktop" transform="translate(-465.000000, -548.000000)" fill="#000000">
            <g id="ry-logo" transform="translate(465.000000, 548.000000)">
                <polygon id="Shape" points="6.87804878 0 0 0 0 57.5539568 15.4756098 57.5539568 15.4756098 20.7194245 16.0487805 20.7194245 16.0487805 19.5683453 16.6219512 19.5683453 16.6219512 18.9928058 17.195122 18.9928058 17.195122 18.4172662 17.7682927 18.4172662 17.7682927 17.8417266 18.3414634 17.8417266 18.3414634 17.2661871 18.9146341 17.2661871 18.9146341 16.6906475 19.4878049 16.6906475 19.4878049 16.1151079 20.6341463 16.1151079 20.6341463 15.5395683 21.2073171 15.5395683 21.2073171 14.9640288 22.9268293 14.9640288 22.9268293 14.3884892 24.6463415 14.3884892 24.6463415 13.8129496 27.5121951 13.8129496 27.5121951 13.2374101 33.2439024 13.2374101 33.2439024 14.9640288 33.8170732 14.9640288 33.8170732 16.1151079 34.3902439 16.1151079 34.3902439 17.8417266 34.9634146 17.8417266 34.9634146 18.9928058 35.5365854 18.9928058 35.5365854 20.1438849 36.1097561 20.1438849 36.1097561 21.8705036 36.6829268 21.8705036 36.6829268 23.0215827 37.2560976 23.0215827 37.2560976 24.7482014 37.8292683 24.7482014 37.8292683 25.8992806 38.402439 25.8992806 38.402439 27.0503597 38.9756098 27.0503597 38.9756098 28.7769784 39.5487805 28.7769784 39.5487805 29.9280576 40.1219512 29.9280576 40.1219512 31.6546763 40.695122 31.6546763 40.695122 32.8057554 41.2682927 32.8057554 41.2682927 33.9568345 41.8414634 33.9568345 41.8414634 35.6834532 42.4146341 35.6834532 42.4146341 36.8345324 42.9878049 36.8345324 42.9878049 37.9856115 43.5609756 37.9856115 43.5609756 39.7122302 44.1341463 39.7122302 44.1341463 40.8633094 44.7073171 40.8633094 44.7073171 42.5899281 45.2804878 42.5899281 45.2804878 43.7410072 45.8536585 43.7410072 45.8536585 45.4676259 46.4268293 45.4676259 46.4268293 46.618705 47 46.618705 47 47.7697842 47.5731707 47.7697842 47.5731707 49.4964029 48.1463415 49.4964029 48.1463415 50.647482 48.7195122 50.647482 48.7195122 51.7985612 49.2926829 51.7985612 49.2926829 53.5251799 49.8658537 53.5251799 49.8658537 54.676259 49.2926829 54.676259 49.2926829 55.8273381 48.7195122 55.8273381 48.7195122 56.9784173 48.1463415 56.9784173 48.1463415 58.1294964 47.5731707 58.1294964 47.5731707 58.705036 47 58.705036 47 59.8561151 46.4268293 59.8561151 46.4268293 60.4316547 45.8536585 60.4316547 45.8536585 61.5827338 45.2804878 61.5827338 45.2804878 62.1582734 44.7073171 62.1582734 44.7073171 62.7338129 43.5609756 62.7338129 43.5609756 63.3093525 42.9878049 63.3093525 42.9878049 63.8848921 42.4146341 63.8848921 42.4146341 64.4604317 41.2682927 64.4604317 41.2682927 65.0359712 39.5487805 65.0359712 39.5487805 65.6115108 37.8292683 65.6115108 37.8292683 66.1870504 34.9634146 66.1870504 34.9634146 66.7625899 29.2317073 66.7625899 29.2317073 80 38.402439 80 38.402439 79.4244604 41.8414634 79.4244604 41.8414634 78.8489209 43.5609756 78.8489209 43.5609756 78.2733813 45.2804878 78.2733813 45.2804878 77.6978417 47 77.6978417 47 77.1223022 48.1463415 77.1223022 48.1463415 76.5467626 49.2926829 76.5467626 49.2926829 75.971223 49.8658537 75.971223 49.8658537 75.3956835 51.0121951 75.3956835 51.0121951 74.8201439 51.5853659 74.8201439 51.5853659 74.2446043 52.1585366 74.2446043 52.1585366 73.6690647 52.7317073 73.6690647 52.7317073 73.0935252 53.304878 73.0935252 53.304878 72.5179856 53.8780488 72.5179856 53.8780488 71.942446 54.4512195 71.942446 54.4512195 71.3669065 55.0243902 71.3669065 55.0243902 70.7913669 55.597561 70.7913669 55.597561 70.2158273 56.1707317 70.2158273 56.1707317 69.6402878 56.7439024 69.6402878 56.7439024 68.4892086 57.3170732 68.4892086 57.3170732 67.9136691 57.8902439 67.9136691 57.8902439 66.7625899 58.4634146 66.7625899 58.4634146 65.6115108 59.0365854 65.6115108 59.0365854 65.0359712 59.6097561 65.0359712 59.6097561 63.8848921 60.1829268 63.8848921 60.1829268 62.7338129 60.7560976 62.7338129 60.7560976 61.5827338 61.3292683 61.5827338 61.3292683 60.4316547 61.902439 60.4316547 61.902439 59.2805755 62.4756098 59.2805755 62.4756098 58.1294964 63.0487805 58.1294964 63.0487805 56.4028777 63.6219512 56.4028777 63.6219512 55.2517986 64.195122 55.2517986 64.195122 54.1007194 64.7682927 54.1007194 64.7682927 52.3741007 65.3414634 52.3741007 65.3414634 51.2230216 65.9146341 51.2230216 65.9146341 49.4964029 66.4878049 49.4964029 66.4878049 48.3453237 67.0609756 48.3453237 67.0609756 46.618705 67.6341463 46.618705 67.6341463 45.4676259 68.2073171 45.4676259 68.2073171 44.3165468 68.7804878 44.3165468 68.7804878 42.5899281 69.3536585 42.5899281 69.3536585 41.4388489 69.9268293 41.4388489 69.9268293 39.7122302 70.5 39.7122302 70.5 38.5611511 71.0731707 38.5611511 71.0731707 36.8345324 71.6463415 36.8345324 71.6463415 35.6834532 72.2195122 35.6834532 72.2195122 33.9568345 72.7926829 33.9568345 72.7926829 32.8057554 73.3658537 32.8057554 73.3658537 31.6546763 73.9390244 31.6546763 73.9390244 29.9280576 74.5121951 29.9280576 74.5121951 28.7769784 75.0853659 28.7769784 75.0853659 27.0503597 75.6585366 27.0503597 75.6585366 25.8992806 76.2317073 25.8992806 76.2317073 24.1726619 76.804878 24.1726619 76.804878 23.0215827 77.3780488 23.0215827 77.3780488 21.294964 77.9512195 21.294964 77.9512195 20.1438849 78.5243902 20.1438849 78.5243902 18.4172662 79.097561 18.4172662 79.097561 17.2661871 79.6707317 17.2661871 79.6707317 16.1151079 80.2439024 16.1151079 80.2439024 14.3884892 80.8170732 14.3884892 80.8170732 13.2374101 81.3902439 13.2374101 81.3902439 11.5107914 81.9634146 11.5107914 81.9634146 10.3597122 82.5365854 10.3597122 82.5365854 8.63309353 83.1097561 8.63309353 83.1097561 7.48201439 83.6829268 7.48201439 83.6829268 5.75539568 84.2560976 5.75539568 84.2560976 4.60431655 84.8292683 4.60431655 84.8292683 3.45323741 85.402439 3.45323741 85.402439 1.72661871 85.9756098 1.72661871 85.9756098 0.575539568 86.5487805 0.575539568 86.5487805 0 70.5 0 70.5 0.575539568 69.9268293 0.575539568 69.9268293 2.30215827 69.3536585 2.30215827 69.3536585 4.02877698 68.7804878 4.02877698 68.7804878 5.75539568 68.2073171 5.75539568 68.2073171 7.48201439 67.6341463 7.48201439 67.6341463 8.63309353 67.0609756 8.63309353 67.0609756 10.3597122 66.4878049 10.3597122 66.4878049 12.0863309 65.9146341 12.0863309 65.9146341 13.8129496 65.3414634 13.8129496 65.3414634 15.5395683 64.7682927 15.5395683 64.7682927 17.2661871 64.195122 17.2661871 64.195122 18.4172662 63.6219512 18.4172662 63.6219512 20.1438849 63.0487805 20.1438849 63.0487805 21.8705036 62.4756098 21.8705036 62.4756098 23.5971223 61.902439 23.5971223 61.902439 25.323741 61.3292683 25.323741 61.3292683 26.4748201 60.7560976 26.4748201 60.7560976 28.2014388 60.1829268 28.2014388 60.1829268 29.9280576 59.6097561 29.9280576 59.6097561 31.6546763 59.0365854 31.6546763 59.0365854 33.381295 58.4634146 33.381295 58.4634146 35.1079137 57.8902439 35.1079137 57.8902439 36.2589928 57.3170732 36.2589928 57.3170732 35.6834532 56.7439024 35.6834532 56.7439024 33.9568345 56.1707317 33.9568345 56.1707317 32.8057554 55.597561 32.8057554 55.597561 31.0791367 55.0243902 31.0791367 55.0243902 29.352518 54.4512195 29.352518 54.4512195 28.2014388 53.8780488 28.2014388 53.8780488 26.4748201 53.304878 26.4748201 53.304878 24.7482014 52.7317073 24.7482014 52.7317073 23.5971223 52.1585366 23.5971223 52.1585366 21.8705036 51.5853659 21.8705036 51.5853659 20.1438849 51.0121951 20.1438849 51.0121951 18.4172662 50.4390244 18.4172662 50.4390244 17.2661871 49.8658537 17.2661871 49.8658537 15.5395683 49.2926829 15.5395683 49.2926829 13.8129496 48.7195122 13.8129496 48.7195122 12.6618705 48.1463415 12.6618705 48.1463415 10.9352518 47.5731707 10.9352518 47.5731707 9.20863309 47 9.20863309 47 8.05755396 46.4268293 8.05755396 46.4268293 6.33093525 45.8536585 6.33093525 45.8536585 4.60431655 45.2804878 4.60431655 45.2804878 3.45323741 44.7073171 3.45323741 44.7073171 1.72661871 44.1341463 1.72661871 44.1341463 0 31.5243902 0 31.5243902 0.575539568 26.3658537 0.575539568 26.3658537 1.15107914 24.0731707 1.15107914 24.0731707 1.72661871 22.3536585 1.72661871 22.3536585 2.30215827 21.2073171 2.30215827 21.2073171 2.87769784 20.6341463 2.87769784 20.6341463 3.45323741 19.4878049 3.45323741 19.4878049 4.02877698 18.9146341 4.02877698 18.9146341 4.60431655 18.3414634 4.60431655 18.3414634 5.17985612 17.7682927 5.17985612 17.7682927 5.75539568 17.195122 5.75539568 17.195122 6.33093525 16.6219512 6.33093525 16.6219512 6.90647482 16.0487805 6.90647482 16.0487805 8.05755396 15.4756098 8.05755396 15.4756098 9.20863309 14.902439 9.20863309 14.902439 10.3597122 14.3292683 10.3597122 14.3292683 0"></polygon>
                <polygon id="Shape" points="94 54.1007194 94 42.5899281 78.5243902 42.5899281 78.5243902 56.9784173 79.097561 56.9784173 79.097561 57.5539568 94 57.5539568"></polygon>
            </g>
        </g>
    </g>
</svg>