<?xml version="1.0" encoding="UTF-8" standalone="no"?>
<svg width="57px" height="77px" viewBox="0 0 57 77" version="1.1" xmlns="http://www.w3.org/2000/svg" xmlns:xlink="http://www.w3.org/1999/xlink">
    <!-- Generator: Sketch 3.8.3 (29802) - http://www.bohemiancoding.com/sketch -->
    <title>grunt</title>
    <desc>Created with Sketch.</desc>
    <defs></defs>
    <g id="About" stroke="none" stroke-width="1" fill="none" fill-rule="evenodd">
        <g id="About-Desktop" transform="translate(-485.000000, -1101.000000)" fill="#F2A330">
            <g id="Skillset" transform="translate(43.000000, 694.000000)">
                <g id="grunt" transform="translate(442.000000, 407.000000)">
                    <path d="M28.49115,28.2177778 L28.49115,28.2207407 L28.50295,28.2207407 L28.51475,28.2207407 L28.51475,28.2177778 C30.3998,28.197037 32.5415,25.5718519 32.5415,25.5718519 C31.06945,26.4666667 29.7567,26.7748148 28.50295,26.8044444 C27.2492,26.7777778 25.93645,26.4666667 24.4644,25.5718519 C24.4644,25.5718519 26.6061,28.197037 28.49115,28.2177778 L28.49115,28.2177778 Z M23.75345,62.4992593 L22.8065,62.4992593 L19.97745,62.4992593 L19.4022,62.4992593 C18.5939,62.4992593 18.1927,62.7303704 18.00095,62.9259259 C17.7207,63.2103704 17.6794,63.6044444 17.87115,64.0962963 C18.38445,65.4148148 19.55265,66.4933333 19.8978,66.7925926 C20.34915,67.1837037 20.99815,67.4177778 21.63535,67.4177778 C22.29025,67.4177778 22.86845,67.1807407 23.2667,66.7540741 C24.37885,65.56 25.03375,64.277037 25.19305,63.882963 C25.2845,63.6577778 25.38775,63.2281481 25.06325,62.8933333 C24.80955,62.6325926 24.36705,62.4992593 23.75345,62.4992593 L23.75345,62.4992593 Z M9.16865,28.4607407 C9.0005,29.9511111 9.94155,31.3051852 9.94155,31.3051852 C10.0389,30.197037 10.269,29.4088889 10.53745,28.8459259 C10.60235,30.3748148 11.0065,32.3392593 12.42545,33.9155556 C13.4432,35.0474074 17.68825,37.3851852 20.53795,34.8222222 C20.68545,35.1837037 20.84475,35.6133333 20.97455,36.0785185 C21.40525,37.6014815 20.5822,39.8296296 20.5822,39.8296296 C20.5822,39.8296296 22.80945,37.2962963 22.6354,35 C24.2343,34.9288889 25.8037,33.7496296 25.75945,32.1022222 C25.75945,32.1022222 22.9717,33.6488889 20.50845,30.8014815 C19.0718,29.1392593 14.4639,24.5614815 8.21285,26.0814815 C8.85595,26.2237037 9.52855,26.4340741 10.2159,26.6948148 C10.21,26.6977778 10.2041,26.6977778 10.1982,26.7007407 C9.59345,26.9674074 9.2542,27.722963 9.16865,28.4577778 L9.16865,28.4607407 Z M13.36355,28.1911111 C16.2516,29.8207407 18.9007,32.0044444 20.004,33.6903704 L20.004,33.6903704 C20.004,33.6903704 20.00695,33.6933333 20.00695,33.6962963 C19.15735,34.1911111 16.8003,35.2459259 14.3931,33.4503704 C12.85615,32.3007407 12.924,29.5392593 13.36355,28.1940741 L13.36355,28.1911111 Z M37.60075,62.5022222 L37.0255,62.5022222 L34.19645,62.5022222 L33.2495,62.5022222 C32.63295,62.5022222 32.1934,62.6355556 31.9397,62.8962963 C31.6152,63.2340741 31.71845,63.6607407 31.80695,63.8859259 C31.96625,64.28 32.6241,65.5659259 33.7333,66.757037 C34.13155,67.1837037 34.70975,67.4207407 35.36465,67.4207407 C36.00185,67.4207407 36.65085,67.1896296 37.1022,66.7955556 C37.44735,66.4962963 38.61555,65.4207407 39.12885,64.0992593 C39.3206,63.6074074 39.27635,63.2103704 38.99905,62.9288889 C38.8073,62.7333333 38.40905,62.5022222 37.60075,62.5022222 L37.60075,62.5022222 Z M34.36755,35 C34.19645,37.2962963 36.42075,39.8296296 36.42075,39.8296296 C36.42075,39.8296296 35.5977,37.6014815 36.0284,36.0785185 C36.16115,35.6133333 36.3175,35.1837037 36.465,34.8222222 C39.3147,37.3851852 43.55975,35.0474074 44.5775,33.9155556 C45.99645,32.3392593 46.40355,30.3718519 46.4655,28.842963 C46.73395,29.4059259 46.96405,30.1940741 47.0614,31.3022222 C47.0614,31.3022222 48.00245,29.9481481 47.8343,28.4577778 C47.7517,27.722963 47.41245,26.9674074 46.8077,26.7007407 C46.8018,26.6977778 46.7959,26.6977778 46.79,26.6948148 C47.47735,26.4340741 48.14995,26.2237037 48.79305,26.0814815 C42.54495,24.5585185 37.93705,29.1392593 36.49745,30.8014815 C34.0342,33.6459259 31.24645,32.1022222 31.24645,32.1022222 C31.2022,33.7496296 32.7716,34.9318519 34.3705,35 L34.36755,35 Z M36.996,33.6933333 L36.996,33.6933333 C38.0993,32.0074074 40.75135,29.8237037 43.63645,28.1940741 C44.076,29.5422222 44.14385,32.3037037 42.6069,33.4503704 C40.1997,35.2459259 37.8397,34.1911111 36.99305,33.6962963 L36.996,33.6933333 L36.996,33.6933333 Z M51.75485,47.4681481 C51.40085,50.122963 49.8285,52.4962963 48.12045,53.9659259 C47.66615,50.5911111 47.57175,45.72 47.57175,44.6977778 C47.57175,42.5140741 48.97595,41.0562963 49.3742,40.8251852 C49.74885,40.6059259 50.16775,40.3837037 50.60435,40.1466667 C53.26525,38.7155556 56.58105,36.9348148 56.58105,33.6488889 C56.58105,31.2488889 55.20635,30.2059259 54.29775,29.5185185 C54.1827,29.4325926 54.0765,29.3496296 53.97915,29.2725926 C53.67235,29.0237037 53.4275,28.8251852 53.339,28.6266667 C52.6959,27.1718519 52.8139,23.5392593 53.0912,23.0385185 C53.1738,22.9437037 55.56625,19.9303704 54.8317,17.2222222 C54.5308,16.117037 53.811,15.2459259 52.74605,14.6977778 C51.96135,14.2948148 50.9908,14.0696296 49.858,14.0281481 C49.84325,13.7348148 49.78425,13.4444444 49.7223,13.157037 C49.6397,12.7688889 49.5512,12.3688889 49.5866,11.96 C49.6456,11.2696296 49.6987,10.6177778 49.9052,10.2888889 C51.156,8.30962963 54.1709,7.67555556 54.2004,7.66962963 L56.01465,7.31407407 L54.814,5.9037037 C54.79335,5.87703704 52.2593,3.30814815 47.96705,3.30814815 C46.7959,3.30814815 45.5982,3.5037037 44.4064,3.88888889 C40.82215,5.05037037 38.06685,8.41925926 37.1081,9.72 C36.64495,9.57481481 36.17,9.44148148 35.6921,9.32296296 C35.0726,6.9762963 37.01665,3.60740741 37.01665,3.60740741 C37.01665,3.60740741 35.0136,3.16 32.04,5.87111111 C31.65355,4.90518519 30.84525,2.82518519 31.7804,0.339259259 C27.42325,1.88592593 26.3229,4.24444444 25.99545,6.3837037 C24.87445,5.57777778 24.99835,2.95851852 24.9364,2.28592593 C23.8213,2.41925926 20.6235,5.5362963 20.76805,9.46222222 C20.476,9.54222222 20.1869,9.62518519 19.90075,9.71703704 C18.942,8.41333333 16.1867,5.04444444 12.60245,3.88296296 C11.41065,3.49481481 10.21295,3.29925926 9.0418,3.29925926 C4.7525,3.29925926 2.21845,5.86814815 2.19485,5.89481481 L0.9942,7.30518519 L2.80845,7.66074074 C2.83795,7.66666667 5.8558,8.30074074 7.10365,10.28 C7.31015,10.6088889 7.3662,11.2607407 7.42225,11.9511111 C7.45765,12.362963 7.36915,12.762963 7.28655,13.1481481 C7.2246,13.4355556 7.16265,13.7259259 7.1479,14.0222222 C6.0151,14.0637037 5.04455,14.2888889 4.25985,14.6918519 C3.1949,15.24 2.47215,16.1111111 2.1742,17.2162963 C1.43965,19.9214815 3.8321,22.9348148 3.9147,23.0325926 C4.19495,23.5333333 4.31295,27.1659259 3.6669,28.6207407 C3.5784,28.8222222 3.3365,29.0177778 3.02675,29.2666667 C2.9294,29.3437037 2.8232,29.4266667 2.70815,29.5125926 C1.79955,30.202963 0.42485,31.242963 0.42485,33.642963 C0.42485,36.9259259 3.7377,38.7066667 6.40155,40.1407407 C6.83815,40.3777778 7.2541,40.6 7.6317,40.8192593 C8.02995,41.0503704 9.43415,42.5081481 9.43415,44.6918519 C9.43415,45.7140741 9.33975,50.5851852 8.88545,53.96 C7.1774,52.4903704 5.6021,50.117037 5.2481,47.4622222 C5.2481,47.4622222 0.92635,50.8133333 2.19485,57.9837037 C3.3483,64.4962963 8.6347,66.762963 14.7707,67.242963 C16.82685,72.0577778 20.08955,76.3777778 28.49115,76.3837037 L28.49115,76.3837037 L28.50295,76.3837037 L28.51475,76.3837037 L28.51475,76.3837037 C36.91635,76.3777778 40.17905,72.0548148 42.2352,67.242963 C48.3712,66.7659259 53.65465,64.4992593 54.81105,57.9837037 C56.0825,50.8133333 51.7578,47.4622222 51.7578,47.4622222 L51.75485,47.4681481 Z M45.31795,5.93925926 C46.1528,5.66962963 47.02895,5.53037037 47.9287,5.53037037 C49.5571,5.53037037 50.8787,5.97481481 51.5808,6.27407407 C51.1265,6.47851852 50.63385,6.74222222 50.1471,7.06518519 C49.79015,7.00296296 49.327,6.94962963 48.78715,6.94962963 C47.2325,6.94962963 45.7634,7.40888889 44.5362,8.27407407 C42.7131,9.56 41.8694,10.7866667 41.48295,11.5955556 C41.15845,11.4088889 40.8133,11.2222222 40.43865,11.0385185 C40.20855,10.9259259 39.97255,10.8162963 39.73655,10.7096296 C40.64515,9.3762963 42.68065,6.78962963 45.31795,5.9362963 L45.31795,5.93925926 Z M48.4184,8.64740741 C48.3004,8.80148148 48.18535,8.95851852 48.0821,9.12740741 C47.5924,9.9037037 47.51275,10.8548148 47.43605,11.7733333 C47.3564,12.7274074 47.27675,13.6340741 46.79,14.2918519 C46.17345,14.4074074 45.59525,14.5496296 45.09375,14.6888889 C44.7604,14.2237037 44.26185,13.6488889 43.5391,13.0325926 C43.7515,12.3185185 44.35625,10.6355556 45.54215,9.68740741 C46.3534,9.03851852 47.32395,8.69185185 48.42135,8.64740741 L48.4184,8.64740741 Z M6.85585,7.06814815 C6.3691,6.74222222 5.87645,6.48148148 5.42215,6.27407407 C6.12425,5.97481481 7.44585,5.53037037 9.07425,5.53037037 C9.974,5.53037037 10.8531,5.66666667 11.68795,5.9362963 C14.32525,6.78962963 16.36075,9.3762963 17.26935,10.7125926 C17.03335,10.8192593 16.79735,10.9288889 16.5643,11.0414815 C16.1926,11.2251852 15.8445,11.4088889 15.52,11.5955556 C15.1306,10.7866667 14.2869,9.56 12.46675,8.27407407 C11.23955,7.40888889 9.7675,6.94962963 8.2158,6.94962963 C7.6789,6.94962963 7.2128,7.00296296 6.8588,7.06518519 L6.85585,7.06814815 Z M13.46385,13.0325926 C12.7411,13.6488889 12.2455,14.2237037 11.9092,14.6918519 C11.40475,14.5525926 10.8295,14.4103704 10.21295,14.2948148 L8.5816,8.65037037 C9.679,8.69481481 10.64955,9.04148148 11.4608,9.69037037 L13.46385,13.0355556 L13.46385,13.0325926 Z M8.7055,38.9496296 C8.3043,38.7185185 7.8854,38.4903704 7.4606,38.2592593 C5.26285,37.0681481 2.99135,35.8325926 2.99135,33.7288889 C2.99135,32.0814815 3.62855,31.5659259 4.3041,31.0207407 L4.7171,30.5496296 C4.5755,31.6844444 4.4221,32.6651852 4.30115,32.9081481 C4.30115,32.9081481 6.09475,30.6740741 6.6287,26.3214815 C6.83815,24.6088889 6.46645,21.2281481 5.8735,19.9274074 C5.8971,20.6503704 5.87645,21.3762963 5.8263,22.0607407 C5.7673,21.9392593 5.70535,21.8296296 5.63455,21.7407407 C5.1596,21.1451852 3.8852,19.1392593 4.251,17.7911111 C4.38965,17.2755556 4.71415,16.8962963 5.23925,16.6266667 C5.79385,16.3392593 6.5461,16.197037 7.46945,16.197037 C9.2837,16.197037 11.29855,16.7511111 12.33695,17.082963 C16.04805,18.2651852 20.52615,21.6696296 21.8094,22.6859259 C21.8448,22.7155556 21.8684,22.7303704 21.87135,22.7333333 L22.69145,23.3081481 L22.17815,22.4459259 C22.14865,22.3955556 19.35205,17.7851852 14.3164,15.5392593 C14.61435,15.1096296 15.402,14.3303704 17.5083,13.3022222 C20.67955,11.7496296 24.37885,10.9614815 28.5,10.9614815 C32.62115,10.9614815 36.32045,11.7496296 39.4917,13.3022222 C41.59505,14.3333333 42.38565,15.1125926 42.6836,15.5422222 C37.64795,17.7881481 34.8543,22.3985185 34.8248,22.4488889 L34.3115,23.3111111 L35.13455,22.7362963 C35.1375,22.7333333 35.1611,22.7155556 35.1965,22.6888889 C36.47975,21.6725926 40.95785,18.2681481 44.66895,17.0859259 C45.70735,16.757037 47.7222,16.2 49.53645,16.2 C50.46275,16.2 51.21205,16.3451852 51.76665,16.6296296 C52.29175,16.8992593 52.6133,17.2814815 52.7549,17.7940741 C53.1207,19.1422222 51.8463,21.1481481 51.37135,21.7437037 C51.30055,21.8325926 51.2386,21.9422222 51.1796,22.0637037 C51.12945,21.3762963 51.10585,20.6533333 51.1324,19.9274074 C50.53945,21.2281481 50.16775,24.6059259 50.3772,26.3214815 C50.9082,30.6711111 52.7018,32.9081481 52.7018,32.9081481 C52.58675,32.6740741 52.4422,31.7644444 52.30355,30.6918519 C52.4127,30.7866667 52.52185,30.8755556 52.62805,30.9614815 L52.7018,31.0207407 C53.37735,31.5659259 54.01455,32.0814815 54.01455,33.7288889 C54.01455,35.8355556 51.74305,37.0681481 49.5453,38.2592593 C49.1205,38.4903704 48.7016,38.7185185 48.3004,38.9496296 C47.01715,39.6933333 45.63655,41.4325926 45.4802,44.0281481 C45.3504,46.2 45.61,51.4414815 45.98465,55.2962963 C44.14385,56.0103704 42.0346,56.2474074 40.11415,56.3037037 C39.81325,55.6903704 39.533,55.0355556 39.3029,54.3511111 C39.2026,54.0607407 36.406,46.7659259 35.40005,45.1066667 C36.20835,50.8992593 37.99015,56.0488889 38.87515,58.4162963 C38.3648,58.3451852 37.7925,58.3066667 37.1435,58.3066667 C37.1435,58.3066667 31.0016,58.3037037 28.5118,58.3007407 L28.5,58.3007407 L28.4882,58.3007407 C26.00135,58.3037037 19.8565,58.3066667 19.8565,58.3066667 C19.2075,58.3066667 18.6352,58.3481481 18.12485,58.4162963 C19.00985,56.0488889 20.7946,50.8992593 21.59995,45.1066667 C20.594,46.7688889 17.7974,54.0607407 17.6971,54.3511111 C17.46405,55.0325926 17.1838,55.6903704 16.88585,56.3037037 C14.96835,56.2474074 12.8591,56.0133333 11.0183,55.2962963 C11.39295,51.4414815 11.65255,46.202963 11.52275,44.0281481 C11.36935,41.4325926 9.9858,39.6933333 8.70255,38.9496296 L8.7055,38.9496296 Z M14.66155,59.9037037 C14.58485,59.9777778 14.51405,60.0488889 14.44915,60.12 C13.38125,61.2785185 13.1777,62.8725926 13.8444,64.8548148 C10.50795,64.8014815 7.02105,63.3674074 5.2481,60.44 C3.45155,57.4740741 3.956,52.4074074 4.6935,51.6666667 C6.30715,56.7807407 11.67615,58.2414815 15.69405,58.4162963 C15.29875,59.0385185 14.93,59.5451852 14.66155,59.9037037 L14.66155,59.9037037 Z M41.05225,64.7185185 C40.0758,67.5244444 37.45325,74.3214815 28.5,74.3333333 C19.5438,74.3214815 16.92125,67.5274074 15.94775,64.7185185 C15.4079,63.16 15.4492,62.0074074 16.0746,61.2933333 C16.50235,60.8044444 17.48175,60.2207407 19.71785,60.2207407 L22.05425,60.2207407 C23.77705,60.2207407 25.9394,60.2177778 28.50295,60.2177778 C31.0665,60.2177778 33.22885,60.2207407 34.95165,60.2207407 L37.2851,60.2207407 C39.5212,60.2207407 40.5006,60.8044444 40.9313,61.2933333 C41.55375,62.0103704 41.598,63.162963 41.05815,64.7185185 L41.05225,64.7185185 Z M51.75485,60.44 C49.9819,63.3674074 46.495,64.8014815 43.15855,64.8548148 C43.82525,62.8725926 43.6217,61.2785185 42.5538,60.12 C42.48595,60.0459259 42.41515,59.9748148 42.33845,59.9007407 C42.06705,59.5422222 41.7042,59.0355556 41.3089,58.4192593 C45.32975,58.2414815 50.69875,56.7807407 52.30945,51.6696296 C53.04695,52.4103704 53.5514,57.477037 51.75485,60.442963 L51.75485,60.44 Z" id="Shape"></path>
                </g>
            </g>
        </g>
    </g>
</svg>