<?xml version="1.0" encoding="UTF-8" standalone="no"?>
<svg width="76px" height="76px" viewBox="0 0 76 76" version="1.1" xmlns="http://www.w3.org/2000/svg" xmlns:xlink="http://www.w3.org/1999/xlink">
    <!-- Generator: Sketch 3.8.3 (29802) - http://www.bohemiancoding.com/sketch -->
    <title>wordpress</title>
    <desc>Created with Sketch.</desc>
    <defs></defs>
    <g id="About" stroke="none" stroke-width="1" fill="none" fill-rule="evenodd">
        <g id="About-Desktop" transform="translate(-312.000000, -1430.000000)" fill="#278DBC">
            <g id="Skillset" transform="translate(43.000000, 694.000000)">
                <g id="wordpress" transform="translate(269.000000, 736.000000)">
                    <path d="M0.27,37.9 C0.27,52.81 8.93666667,65.7066667 21.5066667,71.8033333 L3.53666667,22.56 C1.44333333,27.25 0.27,32.4333333 0.27,37.9 L0.27,37.9 Z M63.3866667,35.9966667 C63.3866667,31.34 61.71,28.1133333 60.28,25.6033333 C58.37,22.4966667 56.5833333,19.8733333 56.5833333,16.7633333 C56.5833333,13.3 59.2,10.0766667 62.91,10.0766667 C63.07,10.0766667 63.2333333,10.1 63.3933333,10.11 C56.6933333,3.97 47.7633333,0.216666667 37.9533333,0.216666667 C24.7866667,0.216666667 13.2066667,6.97333333 6.47333333,17.2033333 C7.36,17.23 8.19,17.25 8.89666667,17.25 C12.84,17.25 18.94,16.7666667 18.94,16.7666667 C20.9666667,16.6533333 21.2066667,19.63 19.1766667,19.8733333 C19.1766667,19.8733333 17.14,20.11 14.8666667,20.2333333 L28.59,61.0433333 L36.8366667,36.3166667 L30.9633333,20.2333333 C28.9333333,20.11 27.0133333,19.8733333 27.0133333,19.8733333 C24.98,19.75 25.2233333,16.6533333 27.2566667,16.7666667 C27.2566667,16.7666667 33.4733333,17.25 37.1766667,17.25 C41.1166667,17.25 47.2233333,16.7666667 47.2233333,16.7666667 C49.2466667,16.6533333 49.4866667,19.63 47.4566667,19.8733333 C47.4566667,19.8733333 45.42,20.11 43.15,20.2333333 L56.7666667,60.7333333 L60.5266667,48.18 C62.4366667,43.28 63.3966667,39.2266667 63.3966667,35.9966667 L63.3866667,35.9966667 Z M38.6133333,41.1966667 L27.3033333,74.05 C30.6766667,75.04 34.2433333,75.58 37.95,75.58 C42.3333333,75.58 46.5466667,74.82 50.4633333,73.44 C50.3633333,73.28 50.27,73.11 50.1933333,72.9266667 L38.6133333,41.1966667 L38.6133333,41.1966667 Z M71.0133333,19.82 C71.18,21.0233333 71.2733333,22.31 71.2733333,23.7 C71.2733333,27.52 70.5566667,31.8166667 68.4033333,37.1966667 L56.8933333,70.4666667 C68.0933333,63.94 75.6233333,51.8066667 75.6233333,37.9033333 C75.6233333,31.3466667 73.95,25.19 71.01,19.82 L71.0133333,19.82 Z" id="Shape"></path>
                </g>
            </g>
        </g>
    </g>
</svg>