<?xml version="1.0" encoding="UTF-8" standalone="no"?>
<svg width="62px" height="81px" viewBox="0 0 62 81" version="1.1" xmlns="http://www.w3.org/2000/svg" xmlns:xlink="http://www.w3.org/1999/xlink">
    <!-- Generator: Sketch 3.8.3 (29802) - http://www.bohemiancoding.com/sketch -->
    <title>jira</title>
    <desc>Created with Sketch.</desc>
    <defs></defs>
    <g id="About" stroke="none" stroke-width="1" fill="none" fill-rule="evenodd">
        <g id="About-Desktop" transform="translate(-639.000000, -1427.000000)" fill="#23507E">
            <g id="Skillset" transform="translate(43.000000, 694.000000)">
                <g id="jira" transform="translate(596.000000, 733.000000)">
                    <path d="M13.662913,4.84172473 C10.7452724,4.84172473 8.38380695,7.20319014 8.38380695,10.1269092 C8.38380695,13.0445499 10.7452724,15.4120937 13.662913,15.4120937 C16.5835929,15.4120937 18.9420191,13.0445499 18.9420191,10.1269092 C18.9420191,7.20319014 16.5835929,4.84172473 13.662913,4.84172473 L13.662913,4.84172473 Z M48.3494057,4.84172473 C45.431765,4.84172473 43.0702996,7.20319014 43.0702996,10.1269092 C43.0702996,13.0445499 45.4287258,15.4120937 48.3494057,15.4120937 C51.2609679,15.4120937 53.6285117,13.0445499 53.6285117,10.1269092 C53.6285117,7.20319014 51.2609679,4.84780314 48.3494057,4.84172473 L48.3494057,4.84172473 Z M31.0076789,0.0185 C28.0900383,0.0185 25.7285729,2.3769262 25.7285729,5.3036845 C25.7285729,8.22132516 28.0900383,10.588869 31.0076789,10.588869 C33.9253196,10.588869 36.286785,8.22132516 36.286785,5.3036845 C36.286785,2.3769262 33.9283588,0.0185 31.0076789,0.0185 L31.0076789,0.0185 Z M59.2358524,19.3357126 C55.6617426,20.7033566 52.0298878,21.7397269 48.7171499,22.511686 C48.0424455,22.6697249 47.4953879,23.1711944 47.2674472,23.7729578 C44.8543153,30.3862766 38.6877602,36.6804785 32.2203233,43.2786013 C31.9619906,43.5278164 31.5972855,43.8499726 31.0046397,43.8499726 C30.411994,43.8499726 30.0533673,43.5338948 29.7889561,43.2786013 C23.3215193,36.6835177 17.1580034,30.4075511 14.7418322,23.7972714 C14.5138916,23.195508 13.9698731,22.6909993 13.2951687,22.5359997 C9.97939169,21.7640406 6.34145849,20.694239 2.77038788,19.3265949 C2.57891771,19.2536539 2.37832992,19.2171834 2.18078133,19.2171834 C1.82215466,19.2171834 1.47568483,19.3296342 1.18088156,19.5545356 C0.721960996,19.9040447 0.484902692,20.4693375 0.539608455,21.0163952 C1.08666608,26.5143243 3.25970053,31.8906851 7.18028018,37.5253786 C10.8668407,42.8227199 15.6748694,47.7249641 20.32182,52.4661302 C28.886311,61.2038561 36.9766855,69.4522694 37.6878604,79.0227387 C37.7516838,79.885874 38.4719763,80.5545 39.3381509,80.5545 L49.400972,80.5545 C49.8538141,80.5545 50.2853818,80.3691082 50.5984203,80.0408737 C50.9114589,79.7126391 51.0755762,79.2719538 51.0512625,78.8191116 C50.7351847,72.4215766 48.3281312,66.014924 43.6902982,59.2374879 C42.7177513,57.8151381 41.6783418,56.4353372 40.590305,55.0798499 C40.1496197,54.5297531 40.3350115,53.8428919 40.6723637,53.4994612 C41.0066766,53.1560306 41.3409896,52.8156392 41.681381,52.4691694 C46.3313709,47.7280033 51.1363603,42.8257591 54.8229209,37.5284178 C58.7435005,31.8937243 60.916535,26.5507948 61.4635926,21.0528657 L59.2358524,19.3357126 Z M20.2093693,59.9030747 C19.972311,59.6538595 19.6228019,59.398566 19.0331954,59.398566 C18.2825108,59.398566 17.835747,59.9182707 17.6685905,60.1766035 C13.4349724,66.6166874 11.2497811,72.6951055 10.9488994,78.8069548 C10.9276249,79.2567577 11.0917422,79.7035215 11.4047807,80.0347953 C11.7178193,80.366069 12.1554654,80.5514608 12.6083075,80.5514608 L22.6528933,80.5514608 C23.5160287,80.5514608 24.2454389,79.8767564 24.3092623,79.013621 C24.5280853,76.0686275 25.4459264,73.1175555 27.1144522,70.0175623 C27.6919019,68.9447215 27.242099,67.9357041 26.9108252,67.5071756 C25.2544563,65.3523764 23.2273038,63.0577736 20.2093693,59.9091531 L20.2093693,59.9030747 Z M31.0167966,24.4962895 C34.1684563,24.4962895 35.9980602,24.3048193 36.6423725,24.3048193 C37.42041,24.3048193 38.1650162,24.9430532 38.1650162,25.8365807 C38.1650162,26.0979527 38.104232,26.2833444 38.0434478,26.4474617 C37.624037,27.5658906 35.7184529,31.5898034 32.1686568,35.0393056 C31.7705204,35.4252852 31.3207175,35.4982262 31.0076789,35.4982262 L31.0046397,35.4982262 C30.6946404,35.4982262 30.2448375,35.4252852 29.8467011,35.0393056 C26.296905,31.5898034 24.3913209,27.5658906 23.9749493,26.4474617 C23.9141651,26.2833444 23.8503417,26.0979527 23.8503417,25.8365807 C23.8503417,24.9430532 24.5949479,24.3048193 25.3729854,24.3048193 C26.0142585,24.3048193 27.8438624,24.4962895 30.9955221,24.4962895 L31.0167966,24.4962895 L31.0167966,24.4962895 Z" id="Shape"></path>
                </g>
            </g>
        </g>
    </g>
</svg>