<?xml version="1.0" encoding="UTF-8" standalone="no"?>
<svg width="80px" height="78px" viewBox="0 0 80 78" version="1.1" xmlns="http://www.w3.org/2000/svg" xmlns:xlink="http://www.w3.org/1999/xlink">
    <!-- Generator: Sketch 3.8.3 (29802) - http://www.bohemiancoding.com/sketch -->
    <title>photoshop</title>
    <desc>Created with Sketch.</desc>
    <defs></defs>
    <g id="About" stroke="none" stroke-width="1" fill="none" fill-rule="evenodd">
        <g id="About-Desktop" transform="translate(-793.000000, -1107.000000)" fill="#22C9FC">
            <g id="Skillset" transform="translate(43.000000, 694.000000)">
                <g id="photoshop" transform="translate(750.000000, 413.000000)">
                    <g id="Group">
                        <path d="M0.554590237,0.3367 L0.554590237,77.75976 L79.4583072,77.75976 L79.4583072,0.3367 L0.554590237,0.3367 L0.554590237,0.3367 Z M73.1815495,71.60218 L6.82848186,71.60218 L6.82848186,6.49428 L73.1815495,6.49428 L73.1815495,71.60218 L73.1815495,71.60218 Z" id="Shape"></path>
                        <path d="M37.8110166,22.06412 C35.8248097,20.35098 32.864129,19.37858 28.7168831,19.37858 C24.6097627,19.37858 19.6227497,19.51014 19.6227497,19.51014 L19.6227497,51.26472 L26.2892969,51.26472 L26.2892969,41.06024 C26.2892969,41.06024 27.4557994,41.04594 28.7168831,40.99446 C33.2825795,40.80284 35.9566502,39.42432 38.2523959,37.09342 C40.0179131,35.28876 40.9895208,32.71762 40.9895208,29.5802 C40.9895208,26.44278 39.7083744,23.68288 37.8110166,22.06412 L37.8110166,22.06412 Z M28.539185,35.4289 C27.4643977,35.44034 27.011554,35.47466 26.2864308,35.40602 L26.2864308,24.44078 C26.2864308,24.44078 27.6994178,24.39216 29.0694133,24.44078 C32.5030004,24.56662 34.3229736,26.98618 34.3229736,29.93484 C34.3229736,33.21812 32.116077,35.386 28.539185,35.4289 L28.539185,35.4289 Z" id="Shape"></path>
                        <path d="M54.0044783,36.4013 C51.1240484,35.38314 50.2097627,34.80256 50.2097627,33.68716 C50.2097627,32.47738 51.2186296,31.75094 52.9956113,31.75094 C55.0104792,31.75094 58.060009,33.04938 59.1175996,33.63282 L59.1175996,28.28176 C57.6788177,27.55532 55.4919839,26.663 52.7548589,26.663 C46.9452754,26.663 43.1992835,30.00634 43.1992835,34.46508 C43.1505598,37.22498 45.0221227,39.19838 49.874429,40.84574 C52.611554,41.76666 53.3309449,43.03936 53.3309449,44.252 C53.3309449,45.46464 52.4195253,46.2397 50.2097627,46.2397 C48.0487237,46.2397 44.8788177,45.00704 43.5346171,44.18622 L43.5346171,44.18622 L43.5346171,49.46864 C45.3115987,50.43532 47.885356,51.35338 50.2097627,51.42488 C56.9823556,51.63652 60.3872817,48.13016 60.3872817,43.72004 C60.338558,40.23084 58.4669951,37.95428 54.0016122,36.40416 L54.0044783,36.4013 Z" id="Shape"></path>
                    </g>
                </g>
            </g>
        </g>
    </g>
</svg>