<?xml version="1.0" encoding="UTF-8" standalone="no"?>
<svg width="72px" height="81px" viewBox="0 0 72 81" version="1.1" xmlns="http://www.w3.org/2000/svg" xmlns:xlink="http://www.w3.org/1999/xlink">
    <!-- Generator: Sketch 3.8.3 (29802) - http://www.bohemiancoding.com/sketch -->
    <title>Shape</title>
    <desc>Created with Sketch.</desc>
    <defs></defs>
    <g id="About" stroke="none" stroke-width="1" fill="none" fill-rule="evenodd">
        <g id="About-Desktop" transform="translate(-157.000000, -790.000000)" fill="#E35030">
            <g id="Skillset" transform="translate(43.000000, 694.000000)">
                <path d="M114.473416,96.1449098 L120.939633,168.787207 L149.957686,176.85509 L179.057232,168.774669 L185.529718,96.1449098 L114.470282,96.1449098 L114.473416,96.1449098 Z M127.907351,113.383977 L127.694214,110.992449 L149.970223,110.992449 L149.970223,119.900345 L137.417048,119.900345 L138.228851,129.024513 L149.970223,129.024513 L149.970223,137.93241 L130.095146,137.93241 L127.907351,113.380843 L127.907351,113.383977 Z M170.43143,131.419177 L168.340801,154.873712 L168.206023,156.378212 L149.957686,161.443364 L131.734424,156.378212 L130.486943,142.389492 L139.41678,142.389492 L140.049924,149.495123 L149.963955,152.17188 L159.884255,149.488854 L160.915464,137.935544 L149.992164,137.935544 L149.992164,129.027648 L170.638298,129.027648 L170.422026,131.419177 L170.43143,131.419177 Z M172.042499,113.383977 L171.638164,117.900613 L171.459505,119.903479 L150.001567,119.903479 L150.001567,110.995583 L172.255636,110.995583 L172.042499,113.383977 L172.042499,113.383977 Z" id="Shape"></path>
            </g>
        </g>
    </g>
</svg>