<?xml version="1.0" encoding="UTF-8" standalone="no"?>
<svg width="80px" height="80px" viewBox="0 0 80 80" version="1.1" xmlns="http://www.w3.org/2000/svg" xmlns:xlink="http://www.w3.org/1999/xlink">
    <!-- Generator: Sketch 3.8.3 (29802) - http://www.bohemiancoding.com/sketch -->
    <title>Shape</title>
    <desc>Created with Sketch.</desc>
    <defs></defs>
    <g id="About" stroke="none" stroke-width="1" fill="none" fill-rule="evenodd">
        <g id="About-Desktop" transform="translate(-795.000000, -784.000000)" fill="#F0DA5C">
            <g id="Skillset" transform="translate(43.000000, 694.000000)">
                <path d="M752,90 L752,170 L832,170 L832,90 L752,90 L752,90 Z M793.753579,158.435583 C792.575153,160.830777 790.323108,162.405419 787.715746,163.164622 C783.707566,164.084867 779.875767,163.560838 777.023006,161.84816 C775.113497,160.677403 773.623211,158.875256 772.613497,156.799591 C774.643149,155.559816 776.667689,154.312372 778.697342,153.072597 C778.751022,153.095603 778.909509,153.384458 779.124233,153.757669 C779.898773,155.058793 780.568507,155.979039 781.884969,156.623211 C783.178425,157.062883 786.013292,157.346626 787.109918,155.071575 C787.779652,153.916155 787.564928,150.122699 787.564928,146.009714 C787.564928,139.54499 787.595603,133.187628 787.595603,126.643661 L795.07771,126.643661 C795.07771,133.514826 795.116053,140.403885 795.07771,147.264826 C795.093047,151.469836 795.458589,155.291411 793.753579,158.433027 L793.753579,158.435583 Z M824.796524,156.321575 C822.19683,165.219836 807.69274,165.508691 801.900307,159.629346 C800.675869,158.246421 799.908998,157.523006 799.177914,155.925358 C802.25818,154.153885 802.25818,154.153885 805.25409,152.420757 C806.882413,154.923313 808.388037,156.298569 811.095092,156.860941 C814.768405,157.308282 818.464724,156.048057 817.636503,152.147239 C816.785276,148.959611 810.116053,148.185072 805.576176,144.777607 C800.96728,141.682004 799.888548,134.161554 803.674335,129.864519 C804.937117,128.27454 807.089468,127.088446 809.346626,126.518405 C810.128834,126.418712 810.921268,126.313906 811.703476,126.214213 C816.228016,126.122188 819.057771,127.315951 821.133436,129.637014 C821.711145,130.222393 822.181493,130.853783 823.065951,132.223926 C820.655419,133.760225 820.663088,133.744888 817.209611,135.981595 C816.470859,134.391616 815.248978,133.394683 813.955521,132.962679 C811.948875,132.354294 809.415644,133.01636 808.891616,135.138037 C808.710123,135.792434 808.748466,136.400818 809.037321,137.47955 C809.850204,139.335378 812.580266,140.140593 815.029141,141.265337 C822.079243,144.125767 824.4591,147.188139 825.044479,150.838446 C825.606851,153.980061 824.906442,156.017382 824.801636,156.321575 L824.796524,156.321575 Z" id="Shape"></path>
            </g>
        </g>
    </g>
</svg>