<?xml version="1.0" encoding="UTF-8" standalone="no"?>
<svg width="57px" height="80px" viewBox="0 0 57 80" version="1.1" xmlns="http://www.w3.org/2000/svg" xmlns:xlink="http://www.w3.org/1999/xlink">
    <!-- Generator: Sketch 3.8.3 (29802) - http://www.bohemiancoding.com/sketch -->
    <title>git_branch</title>
    <desc>Created with Sketch.</desc>
    <defs></defs>
    <g id="About" stroke="none" stroke-width="1" fill="none" fill-rule="evenodd">
        <g id="About-Desktop" transform="translate(-165.000000, -1105.000000)" fill="#F34F32">
            <g id="Skillset" transform="translate(43.000000, 694.000000)">
                <g id="git_branch" transform="translate(122.000000, 411.000000)">
                    <path d="M45.6542857,11.5046595 C39.3945457,11.5046595 34.30754,16.6083632 34.30754,22.8955795 C34.30754,27.0984468 36.6004057,30.7328554 39.9793657,32.7084827 L39.9793657,34.2864994 C39.9793657,34.2864994 39.9793657,45.6774194 28.63262,45.6774194 C23.9293057,45.6774194 20.2440114,46.6900836 17.2858743,48.2401434 L17.2858743,21.3206691 C20.6679286,19.3450418 22.9577,15.7106332 22.9577,11.5077658 C22.9577,5.22054958 17.8737886,0.116845878 11.6109543,0.116845878 C5.34812,0.116845878 0.264208571,5.22054958 0.264208571,11.5077658 C0.264208571,15.7106332 2.55398,19.3450418 5.93603429,21.3206691 L5.93603429,58.646356 C2.55398,60.6219833 0.264208571,64.2532855 0.264208571,68.4561529 C0.264208571,74.7402628 5.34812,79.8470729 11.6109543,79.8470729 C17.8737886,79.8470729 22.9577,74.7402628 22.9577,68.4561529 C22.9577,65.4740741 21.78806,62.7839904 19.9222057,60.7462366 C21.5745543,58.711589 24.2573,57.065233 28.63262,57.065233 C51.1466429,57.065233 51.3230171,34.2864994 51.3230171,34.2864994 L51.3230171,32.7084827 C54.7019771,30.7328554 56.9948429,27.0984468 56.9948429,22.8955795 C56.9948429,16.6083632 51.9078371,11.5046595 45.6480971,11.5046595 L45.6542857,11.5046595 Z M11.6171429,5.81075269 C14.7547486,5.81075269 17.2889686,8.35483871 17.2889686,11.5046595 C17.2889686,14.6544803 14.7547486,17.1985663 11.6171429,17.1985663 C8.47953714,17.1985663 5.94531714,14.6544803 5.94531714,11.5046595 C5.94531714,8.35483871 8.47953714,5.81075269 11.6171429,5.81075269 L11.6171429,5.81075269 Z M11.6171429,74.1500597 C8.47953714,74.1500597 5.94531714,71.6028674 5.94531714,68.4561529 C5.94531714,65.3125448 8.47953714,62.7622461 11.6171429,62.7622461 C14.7547486,62.7622461 17.2889686,65.3156511 17.2889686,68.4561529 C17.2889686,71.6028674 14.7547486,74.1500597 11.6171429,74.1500597 L11.6171429,74.1500597 Z M45.6542857,28.5894863 C42.5197743,28.5894863 39.98246,26.0454002 39.98246,22.8955795 C39.98246,19.7457587 42.5197743,17.2016726 45.6542857,17.2016726 C48.7887971,17.2016726 51.3261114,19.7457587 51.3261114,22.8955795 C51.3261114,26.0454002 48.7887971,28.5894863 45.6542857,28.5894863 L45.6542857,28.5894863 Z" id="Shape"></path>
                </g>
            </g>
        </g>
    </g>
</svg>